<?xml version="1.0" encoding="UTF-8" standalone="no"?><svg xmlns="http://www.w3.org/2000/svg" xmlns:xlink="http://www.w3.org/1999/xlink" contentScriptType="application/ecmascript" contentStyleType="text/css" height="1290px" preserveAspectRatio="none" style="width:1730px;height:1290px;" version="1.1" viewBox="0 0 1730 1290" width="1730px" zoomAndPan="magnify"><defs/><g><!--MD5=[e80bd461753d6c5ec111731420959425]
cluster Main--><path d="M25,655 L55,655 A4.5,4.5 0 0 1 58,658 L65,675.4844 L106,675.4844 A3,3 0 0 1 109,678.4844 L109,727 A3,3 0 0 1 106,730 L25,730 A3,3 0 0 1 22,727 L22,658 A3,3 0 0 1 25,655 " fill="#FFFFFF" style="stroke: #000000; stroke-width: 1.5;"/><line style="stroke: #000000; stroke-width: 1.5;" x1="22" x2="65" y1="675.4844" y2="675.4844"/><text fill="#000000" font-family="Tahoma, sans-serif" font-size="12" font-weight="bold" lengthAdjust="spacingAndGlyphs" textLength="30" x="26" y="669.0059">Main</text><!--MD5=[ed1d20ea533a2a0e7df5ba3c35e56ced]
cluster Controllers--><path d="M136,479 L210,479 A4.5,4.5 0 0 1 213,482 L220,499.4844 L297,499.4844 A3,3 0 0 1 300,502.4844 L300,557 A3,3 0 0 1 297,560 L136,560 A3,3 0 0 1 133,557 L133,482 A3,3 0 0 1 136,479 " fill="#FFFFFF" style="stroke: #000000; stroke-width: 1.5;"/><line style="stroke: #000000; stroke-width: 1.5;" x1="133" x2="220" y1="499.4844" y2="499.4844"/><text fill="#000000" font-family="Tahoma, sans-serif" font-size="12" font-weight="bold" lengthAdjust="spacingAndGlyphs" textLength="74" x="137" y="493.0059">Controllers</text><!--MD5=[6326b81c113285a9d7424a8f38b27174]
cluster Usecases--><path d="M327,405 L392,405 A4.5,4.5 0 0 1 395,408 L402,425.4844 L474,425.4844 A3,3 0 0 1 477,428.4844 L477,579 A3,3 0 0 1 474,582 L327,582 A3,3 0 0 1 324,579 L324,408 A3,3 0 0 1 327,405 " fill="#FFFFFF" style="stroke: #000000; stroke-width: 1.5;"/><line style="stroke: #000000; stroke-width: 1.5;" x1="324" x2="402" y1="425.4844" y2="425.4844"/><text fill="#000000" font-family="Tahoma, sans-serif" font-size="12" font-weight="bold" lengthAdjust="spacingAndGlyphs" textLength="65" x="328" y="419.0059">Usecases</text><!--MD5=[ffbffd7b01f9e7601b10668c327c9f05]
cluster Usecase Interactors - Common--><path d="M505,188 L714,188 A4.5,4.5 0 0 1 717,191 L724,208.4844 L724,208.4844 A3,3 0 0 1 727,211.4844 L727,260 A3,3 0 0 1 724,263 L505,263 A3,3 0 0 1 502,260 L502,191 A3,3 0 0 1 505,188 " fill="#FFFFFF" style="stroke: #000000; stroke-width: 1.5;"/><line style="stroke: #000000; stroke-width: 1.5;" x1="502" x2="724" y1="208.4844" y2="208.4844"/><text fill="#000000" font-family="Tahoma, sans-serif" font-size="12" font-weight="bold" lengthAdjust="spacingAndGlyphs" textLength="209" x="506" y="202.0059">Usecase Interactors - Common</text><!--MD5=[5f4ea9338cfb5a43b94aef063f74a3a1]
cluster Usecase Interactors - Elements--><path d="M504,480 L715,480 A4.5,4.5 0 0 1 718,483 L725,500.4844 L725,500.4844 A3,3 0 0 1 728,503.4844 L728,607 A3,3 0 0 1 725,610 L504,610 A3,3 0 0 1 501,607 L501,483 A3,3 0 0 1 504,480 " fill="#FFFFFF" style="stroke: #000000; stroke-width: 1.5;"/><line style="stroke: #000000; stroke-width: 1.5;" x1="501" x2="725" y1="500.4844" y2="500.4844"/><text fill="#000000" font-family="Tahoma, sans-serif" font-size="12" font-weight="bold" lengthAdjust="spacingAndGlyphs" textLength="211" x="505" y="494.0059">Usecase Interactors - Elements</text><!--MD5=[c9d6d11dd58d037c4533bde0faa05891]
cluster Usecase Interactors - Graphics--><path d="M537.5,287 L746.5,287 A4.5,4.5 0 0 1 749.5,290 L756.5,307.4844 L863,307.4844 A3,3 0 0 1 866,310.4844 L866,453 A3,3 0 0 1 863,456 L537.5,456 A3,3 0 0 1 534.5,453 L534.5,290 A3,3 0 0 1 537.5,287 " fill="#FFFFFF" style="stroke: #000000; stroke-width: 1.5;"/><line style="stroke: #000000; stroke-width: 1.5;" x1="534.5" x2="756.5" y1="307.4844" y2="307.4844"/><text fill="#000000" font-family="Tahoma, sans-serif" font-size="12" font-weight="bold" lengthAdjust="spacingAndGlyphs" textLength="209" x="538.5" y="301.0059">Usecase Interactors - Graphics</text><!--MD5=[bd6a86439868c6e4c6565fa054fa9128]
cluster Usecase Interactors - Tokens--><path d="M511,634 L709,634 A4.5,4.5 0 0 1 712,637 L719,654.4844 L719,654.4844 A3,3 0 0 1 722,657.4844 L722,757 A3,3 0 0 1 719,760 L511,760 A3,3 0 0 1 508,757 L508,637 A3,3 0 0 1 511,634 " fill="#FFFFFF" style="stroke: #000000; stroke-width: 1.5;"/><line style="stroke: #000000; stroke-width: 1.5;" x1="508" x2="719" y1="654.4844" y2="654.4844"/><text fill="#000000" font-family="Tahoma, sans-serif" font-size="12" font-weight="bold" lengthAdjust="spacingAndGlyphs" textLength="198" x="512" y="648.0059">Usecase Interactors - Tokens</text><!--MD5=[114f4823940f317c08f5bedd633c9afd]
cluster Entities--><path d="M924,24 L974,24 A4.5,4.5 0 0 1 977,27 L984,44.4844 L1715,44.4844 A3,3 0 0 1 1718,47.4844 L1718,1275 A3,3 0 0 1 1715,1278 L924,1278 A3,3 0 0 1 921,1275 L921,27 A3,3 0 0 1 924,24 " fill="#FFFFFF" style="stroke: #000000; stroke-width: 1.5;"/><line style="stroke: #000000; stroke-width: 1.5;" x1="921" x2="984" y1="44.4844" y2="44.4844"/><text fill="#000000" font-family="Tahoma, sans-serif" font-size="12" font-weight="bold" lengthAdjust="spacingAndGlyphs" textLength="50" x="925" y="38.0059">Entities</text><ellipse cx="65.7487" cy="701.242" fill="#F8F8F8" rx="27.7487" ry="13.242" style="stroke: #383838; stroke-width: 0.5;"/><text fill="#000000" font-family="Tahoma, sans-serif" font-size="12" font-weight="bold" lengthAdjust="spacingAndGlyphs" textLength="35" x="48.2487" y="704.9842">index</text><ellipse cx="216.6025" cy="527.9205" fill="#F8F8F8" rx="67.6025" ry="15.9205" style="stroke: #383838; stroke-width: 0.5;"/><text fill="#000000" font-family="Tahoma, sans-serif" font-size="12" lengthAdjust="spacingAndGlyphs" textLength="107" x="163.1025" y="531.6627">FigmagicController</text><ellipse cx="400.3714" cy="502.9743" fill="#F8F8F8" rx="60.3714" ry="14.4743" style="stroke: #383838; stroke-width: 0.5;"/><text fill="#000000" font-family="Tahoma, sans-serif" font-size="12" lengthAdjust="spacingAndGlyphs" textLength="89" x="355.8714" y="506.7165">createElements</text><ellipse cx="400.5993" cy="452.8199" fill="#F8F8F8" rx="59.5993" ry="14.3199" style="stroke: #383838; stroke-width: 0.5;"/><text fill="#000000" font-family="Tahoma, sans-serif" font-size="12" lengthAdjust="spacingAndGlyphs" textLength="87" x="357.0993" y="456.562">createGraphics</text><ellipse cx="400.7187" cy="552.1437" fill="#F8F8F8" rx="56.2187" ry="13.6437" style="stroke: #383838; stroke-width: 0.5;"/><text fill="#000000" font-family="Tahoma, sans-serif" font-size="12" lengthAdjust="spacingAndGlyphs" textLength="78" x="361.7187" y="555.8859">createTokens</text><ellipse cx="614.2548" cy="234.242" fill="#F8F8F8" rx="48.2548" ry="13.242" style="stroke: #383838; stroke-width: 0.5;"/><text fill="#000000" font-family="Tahoma, sans-serif" font-size="12" lengthAdjust="spacingAndGlyphs" textLength="64" x="582.2548" y="237.9842">createPage</text><ellipse cx="614.7352" cy="528.847" fill="#F8F8F8" rx="64.7352" ry="15.347" style="stroke: #383838; stroke-width: 0.5;"/><text fill="#000000" font-family="Tahoma, sans-serif" font-size="12" lengthAdjust="spacingAndGlyphs" textLength="100" x="564.7352" y="532.5892">processElements</text><ellipse cx="614.4558" cy="579.7912" fill="#F8F8F8" rx="56.9558" ry="13.7912" style="stroke: #383838; stroke-width: 0.5;"/><text fill="#000000" font-family="Tahoma, sans-serif" font-size="12" lengthAdjust="spacingAndGlyphs" textLength="80" x="574.4558" y="583.5334">writeElements</text><ellipse cx="802.3051" cy="427.242" fill="#F8F8F8" rx="43.3051" ry="13.242" style="stroke: #383838; stroke-width: 0.5;"/><text fill="#000000" font-family="Tahoma, sans-serif" font-size="12" lengthAdjust="spacingAndGlyphs" textLength="57" x="773.8051" y="430.9842">getFileList</text><ellipse cx="802.663" cy="380.242" fill="#F8F8F8" rx="29.163" ry="13.242" style="stroke: #383838; stroke-width: 0.5;"/><text fill="#000000" font-family="Tahoma, sans-serif" font-size="12" lengthAdjust="spacingAndGlyphs" textLength="37" x="784.163" y="383.9842">getIds</text><ellipse cx="802.5477" cy="333.242" fill="#F8F8F8" rx="47.5477" ry="13.242" style="stroke: #383838; stroke-width: 0.5;"/><text fill="#000000" font-family="Tahoma, sans-serif" font-size="12" lengthAdjust="spacingAndGlyphs" textLength="63" x="771.0477" y="336.9842">getIdString</text><ellipse cx="614.4281" cy="376.1856" fill="#F8F8F8" rx="63.9281" ry="15.1856" style="stroke: #383838; stroke-width: 0.5;"/><text fill="#000000" font-family="Tahoma, sans-serif" font-size="12" lengthAdjust="spacingAndGlyphs" textLength="98" x="565.4281" y="379.9278">processGraphics</text><ellipse cx="614.7187" cy="426.1437" fill="#F8F8F8" rx="56.2187" ry="13.6437" style="stroke: #383838; stroke-width: 0.5;"/><text fill="#000000" font-family="Tahoma, sans-serif" font-size="12" lengthAdjust="spacingAndGlyphs" textLength="78" x="575.7187" y="429.8859">writeGraphics</text><ellipse cx="614.3714" cy="681.9743" fill="#F8F8F8" rx="60.3714" ry="14.4743" style="stroke: #383838; stroke-width: 0.5;"/><text fill="#000000" font-family="Tahoma, sans-serif" font-size="12" lengthAdjust="spacingAndGlyphs" textLength="89" x="569.8714" y="685.7165">processTokens</text><ellipse cx="614.2904" cy="731.242" fill="#F8F8F8" rx="51.7904" ry="13.242" style="stroke: #383838; stroke-width: 0.5;"/><text fill="#000000" font-family="Tahoma, sans-serif" font-size="12" lengthAdjust="spacingAndGlyphs" textLength="69" x="579.7904" y="734.9842">writeTokens</text><ellipse cx="1221.4619" cy="1145.242" fill="#F8F8F8" rx="48.9619" ry="13.242" style="stroke: #383838; stroke-width: 0.5;"/><text fill="#000000" font-family="Tahoma, sans-serif" font-size="12" lengthAdjust="spacingAndGlyphs" textLength="65" x="1188.9619" y="1148.9842">baseConfig</text><ellipse cx="1000.663" cy="1169.242" fill="#F8F8F8" rx="29.163" ry="13.242" style="stroke: #383838; stroke-width: 0.5;"/><text fill="#000000" font-family="Tahoma, sans-serif" font-size="12" lengthAdjust="spacingAndGlyphs" textLength="37" x="982.163" y="1172.9842">Config</text><ellipse cx="1221.608" cy="1244.9216" fill="#F8F8F8" rx="70.108" ry="16.4216" style="stroke: #383838; stroke-width: 0.5;"/><text fill="#000000" font-family="Tahoma, sans-serif" font-size="12" lengthAdjust="spacingAndGlyphs" textLength="113" x="1165.108" y="1248.6638">createConfiguration</text><ellipse cx="1000.5267" cy="176.1053" fill="#F8F8F8" rx="63.5267" ry="15.1053" style="stroke: #383838; stroke-width: 0.5;"/><text fill="#000000" font-family="Tahoma, sans-serif" font-size="12" lengthAdjust="spacingAndGlyphs" textLength="97" x="952.0267" y="179.8475">FigmagicElement</text><ellipse cx="1439.3714" cy="114.9743" fill="#F8F8F8" rx="60.3714" ry="14.4743" style="stroke: #383838; stroke-width: 0.5;"/><text fill="#000000" font-family="Tahoma, sans-serif" font-size="12" lengthAdjust="spacingAndGlyphs" textLength="89" x="1394.8714" y="118.7165">getFileContents</text><ellipse cx="1622.5993" cy="77.8199" fill="#F8F8F8" rx="59.5993" ry="14.3199" style="stroke: #383838; stroke-width: 0.5;"/><text fill="#000000" font-family="Tahoma, sans-serif" font-size="12" lengthAdjust="spacingAndGlyphs" textLength="87" x="1579.0993" y="81.562">getTokenMatch</text><ellipse cx="1221.6466" cy="982.0293" fill="#F8F8F8" rx="83.1466" ry="19.0293" style="stroke: #383838; stroke-width: 0.5;"/><text fill="#000000" font-family="Tahoma, sans-serif" font-size="12" lengthAdjust="spacingAndGlyphs" textLength="143" x="1150.1466" y="985.7715">makeBorderWidthTokens</text><ellipse cx="1221.3659" cy="926.1732" fill="#F8F8F8" rx="66.3659" ry="15.6732" style="stroke: #383838; stroke-width: 0.5;"/><text fill="#000000" font-family="Tahoma, sans-serif" font-size="12" lengthAdjust="spacingAndGlyphs" textLength="104" x="1169.3659" y="929.9154">makeColorTokens</text><ellipse cx="1221.2768" cy="872.7554" fill="#F8F8F8" rx="66.7768" ry="15.7554" style="stroke: #383838; stroke-width: 0.5;"/><text fill="#000000" font-family="Tahoma, sans-serif" font-size="12" lengthAdjust="spacingAndGlyphs" textLength="105" x="1168.7768" y="876.4976">makeDelayTokens</text><ellipse cx="1221.4382" cy="819.1876" fill="#F8F8F8" rx="73.9382" ry="17.1876" style="stroke: #383838; stroke-width: 0.5;"/><text fill="#000000" font-family="Tahoma, sans-serif" font-size="12" lengthAdjust="spacingAndGlyphs" textLength="122" x="1160.4382" y="822.9298">makeDurationTokens</text><ellipse cx="1221.2683" cy="763.7537" fill="#F8F8F8" rx="69.2683" ry="16.2537" style="stroke: #383838; stroke-width: 0.5;"/><text fill="#000000" font-family="Tahoma, sans-serif" font-size="12" lengthAdjust="spacingAndGlyphs" textLength="111" x="1165.7683" y="767.4958">makeEasingTokens</text><ellipse cx="1221.3686" cy="708.7737" fill="#F8F8F8" rx="74.3686" ry="17.2737" style="stroke: #383838; stroke-width: 0.5;"/><text fill="#000000" font-family="Tahoma, sans-serif" font-size="12" lengthAdjust="spacingAndGlyphs" textLength="123" x="1159.8686" y="712.5159">makeFontSizeTokens</text><ellipse cx="1221.4281" cy="655.1856" fill="#F8F8F8" rx="63.9281" ry="15.1856" style="stroke: #383838; stroke-width: 0.5;"/><text fill="#000000" font-family="Tahoma, sans-serif" font-size="12" lengthAdjust="spacingAndGlyphs" textLength="98" x="1172.4281" y="658.9278">makeFontTokens</text><ellipse cx="1221.4821" cy="599.9964" fill="#F8F8F8" rx="80.4821" ry="18.4964" style="stroke: #383838; stroke-width: 0.5;"/><text fill="#000000" font-family="Tahoma, sans-serif" font-size="12" lengthAdjust="spacingAndGlyphs" textLength="137" x="1152.9821" y="603.7386">makeFontWeightTokens</text><ellipse cx="1221.7346" cy="541.2469" fill="#F8F8F8" rx="86.7346" ry="19.7469" style="stroke: #383838; stroke-width: 0.5;"/><text fill="#000000" font-family="Tahoma, sans-serif" font-size="12" lengthAdjust="spacingAndGlyphs" textLength="151" x="1146.2346" y="544.9891">makeLetterSpacingTokens</text><ellipse cx="1221.281" cy="482.0562" fill="#F8F8F8" rx="78.281" ry="18.0562" style="stroke: #383838; stroke-width: 0.5;"/><text fill="#000000" font-family="Tahoma, sans-serif" font-size="12" lengthAdjust="spacingAndGlyphs" textLength="132" x="1155.281" y="485.7984">makeLineHeightTokens</text><ellipse cx="1221.3114" cy="423.7623" fill="#F8F8F8" rx="81.8114" ry="18.7623" style="stroke: #383838; stroke-width: 0.5;"/><text fill="#000000" font-family="Tahoma, sans-serif" font-size="12" lengthAdjust="spacingAndGlyphs" textLength="140" x="1151.3114" y="427.5045">makeMediaQueryTokens</text><ellipse cx="1221.3003" cy="366.7601" fill="#F8F8F8" rx="71.8003" ry="16.7601" style="stroke: #383838; stroke-width: 0.5;"/><text fill="#000000" font-family="Tahoma, sans-serif" font-size="12" lengthAdjust="spacingAndGlyphs" textLength="117" x="1162.8003" y="370.5022">makeOpacityTokens</text><ellipse cx="1221.2683" cy="311.7537" fill="#F8F8F8" rx="69.2683" ry="16.2537" style="stroke: #383838; stroke-width: 0.5;"/><text fill="#000000" font-family="Tahoma, sans-serif" font-size="12" lengthAdjust="spacingAndGlyphs" textLength="111" x="1165.7683" y="315.4958">makeRadiusTokens</text><ellipse cx="1221.6526" cy="256.9305" fill="#F8F8F8" rx="72.6526" ry="16.9305" style="stroke: #383838; stroke-width: 0.5;"/><text fill="#000000" font-family="Tahoma, sans-serif" font-size="12" lengthAdjust="spacingAndGlyphs" textLength="119" x="1162.1526" y="260.6727">makeShadowTokens</text><ellipse cx="1221.6526" cy="1093.9305" fill="#F8F8F8" rx="72.6526" ry="16.9305" style="stroke: #383838; stroke-width: 0.5;"/><text fill="#000000" font-family="Tahoma, sans-serif" font-size="12" lengthAdjust="spacingAndGlyphs" textLength="119" x="1162.1526" y="1097.6727">makeSpacingTokens</text><ellipse cx="1221.2683" cy="1038.7537" fill="#F8F8F8" rx="69.2683" ry="16.2537" style="stroke: #383838; stroke-width: 0.5;"/><text fill="#000000" font-family="Tahoma, sans-serif" font-size="12" lengthAdjust="spacingAndGlyphs" textLength="111" x="1165.7683" y="1042.4958">makeZindexTokens</text><ellipse cx="1439.7046" cy="1245.242" fill="#F8F8F8" rx="53.2046" ry="13.242" style="stroke: #383838; stroke-width: 0.5;"/><text fill="#000000" font-family="Tahoma, sans-serif" font-size="12" lengthAdjust="spacingAndGlyphs" textLength="71" x="1404.2046" y="1248.9842">parseCliArgs</text><ellipse cx="1221.4695" cy="147.7939" fill="#F8F8F8" rx="76.9695" ry="17.7939" style="stroke: #383838; stroke-width: 0.5;"/><text fill="#000000" font-family="Tahoma, sans-serif" font-size="12" lengthAdjust="spacingAndGlyphs" textLength="129" x="1156.9695" y="151.5361">parseCssFromElement</text><!--MD5=[28b7d3453cd3ec36a722e517ebcf7d57]
entity _parsers--><rect fill="#F8F8F8" height="34.4844" rx="3" ry="3" style="stroke: #000000; stroke-width: 0.5;" width="63" x="1408" y="151"/><text fill="#000000" font-family="Tahoma, sans-serif" font-size="12" lengthAdjust="spacingAndGlyphs" textLength="43" x="1418" y="173.0059">parsers</text><ellipse cx="1221.5414" cy="82.8083" fill="#F8F8F8" rx="114.5414" ry="25.3083" style="stroke: #383838; stroke-width: 0.5;"/><text fill="#000000" font-family="Tahoma, sans-serif" font-size="12" lengthAdjust="spacingAndGlyphs" textLength="211" x="1116.0414" y="86.5505">parseTypographyStylingFromElement</text><ellipse cx="1221.433" cy="203.0866" fill="#F8F8F8" rx="68.433" ry="16.0866" style="stroke: #383838; stroke-width: 0.5;"/><text fill="#000000" font-family="Tahoma, sans-serif" font-size="12" lengthAdjust="spacingAndGlyphs" textLength="109" x="1166.933" y="206.8288">processNestedCss</text><ellipse cx="1622.5995" cy="131.8199" fill="#F8F8F8" rx="79.5995" ry="18.3199" style="stroke: #383838; stroke-width: 0.5;"/><text fill="#000000" font-family="Tahoma, sans-serif" font-size="12" lengthAdjust="spacingAndGlyphs" textLength="135" x="1555.0995" y="135.5621">sliceOutObjectFromFile</text><ellipse cx="1000.7487" cy="682.242" fill="#F8F8F8" rx="27.7487" ry="13.242" style="stroke: #383838; stroke-width: 0.5;"/><text fill="#000000" font-family="Tahoma, sans-serif" font-size="12" lengthAdjust="spacingAndGlyphs" textLength="35" x="983.2487" y="685.9842">Token</text><ellipse cx="1221.3275" cy="1192.8655" fill="#F8F8F8" rx="57.3275" ry="13.8655" style="stroke: #383838; stroke-width: 0.5;"/><text fill="#000000" font-family="Tahoma, sans-serif" font-size="12" lengthAdjust="spacingAndGlyphs" textLength="81" x="1180.8275" y="1196.6077">validateConfig</text><!--MD5=[21e238070261533280eec9f33fe5e091]
link Config to baseConfig--><path d="M1028.79,1166.009 C1064.23,1162.125 1126.75,1155.274 1170.73,1150.454 " fill="none" id="Config-&gt;baseConfig" style="stroke: #000000; stroke-width: 0.5; stroke-dasharray: 7.0,7.0;"/><polygon fill="#000000" points="1175.74,1149.906,1166.3504,1146.9335,1170.7711,1150.463,1167.2416,1154.8837,1175.74,1149.906" style="stroke: #000000; stroke-width: 0.5;"/><!--MD5=[4a496dfbe29387ae312870dd7e483a9d]
link Config to createConfiguration--><path d="M1019.71,1178.833 C1040.37,1189.666 1075.33,1207.0044 1107,1218 C1124.58,1224.1028 1144.15,1229.3025 1162.03,1233.4613 " fill="none" id="Config-&gt;createConfiguration" style="stroke: #000000; stroke-width: 0.5; stroke-dasharray: 7.0,7.0;"/><polygon fill="#000000" points="1167.03,1234.6066,1159.1645,1228.6793,1162.1589,1233.4786,1157.3596,1236.473,1167.03,1234.6066" style="stroke: #000000; stroke-width: 0.5;"/><!--MD5=[846553e3ea1e134117c976006c031ed4]
link Config to validateConfig--><path d="M1028.79,1171.991 C1062.29,1175.662 1119.97,1181.983 1163.33,1186.735 " fill="none" id="Config-&gt;validateConfig" style="stroke: #000000; stroke-width: 0.5; stroke-dasharray: 7.0,7.0;"/><polygon fill="#000000" points="1168.55,1187.307,1160.0375,1182.3534,1163.5796,1186.7641,1159.1689,1190.3061,1168.55,1187.307" style="stroke: #000000; stroke-width: 0.5;"/><!--MD5=[594ff9a34a74a2e9c01b029559b0f874]
link createConfiguration to parseCliArgs--><path d="M1291.74,1245 C1320.66,1245 1353.86,1245 1381.36,1245 " fill="none" id="createConfiguration-&gt;parseCliArgs" style="stroke: #000000; stroke-width: 0.5; stroke-dasharray: 7.0,7.0;"/><polygon fill="#000000" points="1386.43,1245,1377.43,1241,1381.43,1245,1377.43,1249,1386.43,1245" style="stroke: #000000; stroke-width: 0.5;"/><!--MD5=[a0158201e805ee7219892e1de70e5960]
link createElements to createPage--><path d="M455.928,497.037 C467.142,493.254 477.732,487.3 485,478 C496.712,463.013 483.279,323.349 493,307 C511.435,276 548.617,256.49 576.83,245.52 " fill="none" id="createElements-&gt;createPage" style="stroke: #000000; stroke-width: 0.5;"/><polygon fill="#000000" points="581.631,243.7,571.7975,243.151,576.9558,245.4728,574.634,250.6312,581.631,243.7" style="stroke: #000000; stroke-width: 0.5;"/><!--MD5=[125096df3920c540cd18eee64bd470c9]
link createElements to processElements--><path d="M454.723,509.527 C484.057,513.125 520.631,517.61 551.281,521.369 " fill="none" id="createElements-&gt;processElements" style="stroke: #000000; stroke-width: 0.5;"/><polygon fill="#000000" points="556.538,522.014,548.0918,516.9483,551.5752,521.4054,547.1181,524.8888,556.538,522.014" style="stroke: #000000; stroke-width: 0.5;"/><!--MD5=[ba991f2d9e42c752e72ea379236e6d2b]
link createElements to writeElements--><path d="M453.513,510.046 C465.092,513.772 476.452,519.428 485,528 C493.837,536.863 483.788,546.527 493,555 C509.014,569.73 531.355,576.697 552.456,579.746 " fill="none" id="createElements-&gt;writeElements" style="stroke: #000000; stroke-width: 0.5;"/><polygon fill="#000000" points="557.503,580.406,549.0963,575.2749,552.545,579.7589,548.061,583.2077,557.503,580.406" style="stroke: #000000; stroke-width: 0.5;"/><!--MD5=[250af0a5938fe4302c6aaad3cd02ea95]
link createGraphics to createPage--><path d="M407.924,438.186 C420.749,409.923 451.868,347.513 493,307 C519.576,280.82 557.253,259.93 583.373,247.31 " fill="none" id="createGraphics-&gt;createPage" style="stroke: #000000; stroke-width: 0.5;"/><polygon fill="#000000" points="588.11,245.05,578.2647,245.3136,583.5969,247.2023,581.7083,252.5345,588.11,245.05" style="stroke: #000000; stroke-width: 0.5;"/><!--MD5=[22b05a1c2866d869d212575558cb2fe9]
link createGraphics to processGraphics--><path d="M421.727,439.416 C439.726,427.902 467.134,411.751 493,402 C512.661,394.588 534.965,389.037 554.993,385.01 " fill="none" id="createGraphics-&gt;processGraphics" style="stroke: #000000; stroke-width: 0.5;"/><polygon fill="#000000" points="560.033,384.019,550.4299,381.8327,555.1272,384.9847,551.9751,389.682,560.033,384.019" style="stroke: #000000; stroke-width: 0.5;"/><!--MD5=[163edf993cf6397f6736819145469053]
link createGraphics to writeGraphics--><path d="M453.633,446.36 C485.752,442.27 526.858,437.035 559.345,432.897 " fill="none" id="createGraphics-&gt;writeGraphics" style="stroke: #000000; stroke-width: 0.5;"/><polygon fill="#000000" points="564.482,432.243,555.0489,429.4116,559.522,432.8744,556.0592,437.3475,564.482,432.243" style="stroke: #000000; stroke-width: 0.5;"/><!--MD5=[b6ca0689385c7f179de4b31f551963ed]
link createTokens to createPage--><path d="M453.795,547.445 C465.801,543.853 477.289,537.863 485,528 C500.134,508.642 480.554,328.186 493,307 C511.271,275.9 548.477,256.41 576.741,245.47 " fill="none" id="createTokens-&gt;createPage" style="stroke: #000000; stroke-width: 0.5;"/><polygon fill="#000000" points="581.552,243.65,571.7199,243.0753,576.8722,245.4106,574.5369,250.5629,581.552,243.65" style="stroke: #000000; stroke-width: 0.5;"/><!--MD5=[092b4615a0347e40450b4cc78e12278f]
link createTokens to processTokens--><path d="M422.213,564.702 C460.916,588.434 544.148,639.473 586.924,665.703 " fill="none" id="createTokens-&gt;processTokens" style="stroke: #000000; stroke-width: 0.5;"/><polygon fill="#000000" points="591.435,668.469,585.8552,660.3532,587.1731,665.8544,581.6719,667.1723,591.435,668.469" style="stroke: #000000; stroke-width: 0.5;"/><!--MD5=[b8f430627af767ca22b39d5df52cf59b]
link createTokens to writeTokens--><path d="M405.402,565.815 C414.853,596.574 442.028,670.837 493,707 C511.602,720.198 535.688,726.558 557.43,729.489 " fill="none" id="createTokens-&gt;writeTokens" style="stroke: #000000; stroke-width: 0.5;"/><polygon fill="#000000" points="562.61,730.13,554.1697,725.0544,557.6479,729.5156,553.1867,732.9938,562.61,730.13" style="stroke: #000000; stroke-width: 0.5;"/><!--MD5=[94080402db329286e3cb0fad82d23893]
link FigmagicController to createElements--><path d="M275.336,520.055 C296.825,517.104 321.171,513.759 342.578,510.819 " fill="none" id="FigmagicController-&gt;createElements" style="stroke: #000000; stroke-width: 0.5;"/><polygon fill="#000000" points="347.666,510.12,338.2056,507.3813,342.7125,510.8001,339.2937,515.307,347.666,510.12" style="stroke: #000000; stroke-width: 0.5;"/><!--MD5=[93fb1ca76bb43e2ed089d7baa9df75d9]
link FigmagicController to createGraphics--><path d="M243.659,513.099 C263.173,502.387 290.713,488.109 316,478 C328.156,473.14 341.633,468.71 354.149,464.974 " fill="none" id="FigmagicController-&gt;createGraphics" style="stroke: #000000; stroke-width: 0.5;"/><polygon fill="#000000" points="359.077,463.523,349.3136,462.2287,354.2807,464.9356,351.5737,469.9027,359.077,463.523" style="stroke: #000000; stroke-width: 0.5;"/><!--MD5=[20c913071ef86b77abc11a24428abae5]
link FigmagicController to createTokens--><path d="M275.837,535.693 C298.265,538.65 323.744,542.01 345.724,544.909 " fill="none" id="FigmagicController-&gt;createTokens" style="stroke: #000000; stroke-width: 0.5;"/><polygon fill="#000000" points="350.939,545.596,342.5398,540.4527,345.982,544.9417,341.493,548.3839,350.939,545.596" style="stroke: #000000; stroke-width: 0.5;"/><!--MD5=[cf1ea1266e6a4b3f0637fb0c686ac307]
link FigmagicElement to parseCssFromElement--><path d="M1056.76,168.93 C1084.55,165.38 1118.58,161.03 1148.4,157.22 " fill="none" id="FigmagicElement-&gt;parseCssFromElement" style="stroke: #000000; stroke-width: 0.5; stroke-dasharray: 7.0,7.0;"/><polygon fill="#000000" points="1153.53,156.56,1144.0983,153.7239,1148.5697,157.189,1145.1047,161.6604,1153.53,156.56" style="stroke: #000000; stroke-width: 0.5;"/><!--MD5=[76e1dc550e810c684815fd3736513951]
link FigmagicElement to parseTypographyStylingFromElement--><path d="M1024.34,162.03 C1045.3,149.61 1077.49,131.52 1107,119 C1119.2,113.82 1132.41,108.98 1145.36,104.63 " fill="none" id="FigmagicElement-&gt;parseTypographyStylingFromElement" style="stroke: #000000; stroke-width: 0.5; stroke-dasharray: 7.0,7.0;"/><polygon fill="#000000" points="1150.12,103.05,1140.3161,102.1102,1145.378,104.6354,1142.8528,109.6974,1150.12,103.05" style="stroke: #000000; stroke-width: 0.5;"/><!--MD5=[76e6a92e8b8f374d57b61910e92441db]
link FigmagicElement to processNestedCss--><path d="M1057.05,182.85 C1087,186.54 1124.13,191.12 1155.43,194.98 " fill="none" id="FigmagicElement-&gt;processNestedCss" style="stroke: #000000; stroke-width: 0.5; stroke-dasharray: 7.0,7.0;"/><polygon fill="#000000" points="1160.4,195.59,1151.9585,190.5165,1155.4377,194.9768,1150.9774,198.4561,1160.4,195.59" style="stroke: #000000; stroke-width: 0.5;"/><!--MD5=[63adacb7a1907391f979680dce41d23b]
link getFileContents to sliceOutObjectFromFile--><path d="M1496.28,120.24 C1511.12,121.63 1527.43,123.16 1543.23,124.65 " fill="none" id="getFileContents-&gt;sliceOutObjectFromFile" style="stroke: #000000; stroke-width: 0.5; stroke-dasharray: 7.0,7.0;"/><polygon fill="#000000" points="1548.56,125.15,1539.9778,120.3182,1543.5823,124.678,1539.2226,128.2825,1548.56,125.15" style="stroke: #000000; stroke-width: 0.5;"/><!--MD5=[c556e76eb5c46cfa737a8abbcc22cdf8]
link <b>index</b> to Config--><path d="M72.6989,713.676 C101.2951,770.141 226.493,996 399.5,996 C399.5,996 399.5,996 803.5,996 C896.994,996 966.933,1108.015 990.688,1151.776 " fill="none" id="&lt;b&gt;index&lt;/b&gt;-&gt;Config" style="stroke: #000000; stroke-width: 1.0;"/><polygon fill="#000000" points="993.1,1156.279,992.3789,1146.4566,990.7402,1151.8709,985.3259,1150.2322,993.1,1156.279" style="stroke: #000000; stroke-width: 1.0;"/><!--MD5=[21c58dea4558e048381d962987728dee]
link <b>index</b> to FigmagicController--><path d="M76.7414,689.109 C101.9894,659.794 167.42,583.825 198.555,547.675 " fill="none" id="&lt;b&gt;index&lt;/b&gt;-&gt;FigmagicController" style="stroke: #000000; stroke-width: 1.0;"/><polygon fill="#000000" points="201.818,543.886,192.9139,548.0952,198.5551,547.6746,198.9757,553.3158,201.818,543.886" style="stroke: #000000; stroke-width: 1.0;"/><!--MD5=[d027cd07cefd42a5dc6e760662606f19]
link parseCssFromElement to getFileContents--><path d="M1286.43,138.23 C1317.12,133.54 1353.55,127.98 1383.05,123.47 " fill="none" id="parseCssFromElement-&gt;getFileContents" style="stroke: #000000; stroke-width: 0.5; stroke-dasharray: 7.0,7.0;"/><polygon fill="#000000" points="1388.1,122.7,1378.6055,120.082,1383.1555,123.4431,1379.7944,127.9932,1388.1,122.7" style="stroke: #000000; stroke-width: 0.5;"/><!--MD5=[fe25ebe2b7beef7b0de6a8d8177985ce]
link parseCssFromElement to _parsers--><path d="M1293.23,154.55 C1329.86,157.94 1373.02,161.94 1402.73,164.69 " fill="none" id="parseCssFromElement-&gt;_parsers" style="stroke: #000000; stroke-width: 0.5; stroke-dasharray: 7.0,7.0;"/><polygon fill="#000000" points="1407.74,165.15,1399.1578,160.3182,1402.7623,164.678,1398.4026,168.2825,1407.74,165.15" style="stroke: #000000; stroke-width: 0.5;"/><!--MD5=[5ee55609071428ceeedd39ab491d8479]
link _parsers to getTokenMatch--><path d="M1471.01,155.57 C1480.58,151.16 1491,145.84 1500,140 C1521.16,126.28 1520.99,115.3 1543,103 C1552.64,97.62 1563.6,93.21 1574.21,89.67 " fill="none" id="_parsers-&gt;getTokenMatch" style="stroke: #000000; stroke-width: 0.5; stroke-dasharray: 7.0,7.0;"/><polygon fill="#000000" points="1579.05,88.11,1569.2578,87.055,1574.2897,89.6396,1571.7051,94.6715,1579.05,88.11" style="stroke: #000000; stroke-width: 0.5;"/><!--MD5=[f2f3e6a18f9d90c98cd0628d58f4ee8c]
link parseTypographyStylingFromElement to getFileContents--><path d="M1317.24,97.04 C1339.6,100.35 1362.74,103.78 1382.72,106.74 " fill="none" id="parseTypographyStylingFromElement-&gt;getFileContents" style="stroke: #000000; stroke-width: 0.5; stroke-dasharray: 7.0,7.0;"/><polygon fill="#000000" points="1387.74,107.48,1379.4344,102.1868,1382.7955,106.7369,1378.2455,110.098,1387.74,107.48" style="stroke: #000000; stroke-width: 0.5;"/><!--MD5=[6f0b64f56d47e712764fd786223e0707]
link parseTypographyStylingFromElement to getTokenMatch--><path d="M1336.04,81.58 C1407.82,80.68 1497.96,79.55 1557.52,78.8 " fill="none" id="parseTypographyStylingFromElement-&gt;getTokenMatch" style="stroke: #000000; stroke-width: 0.5; stroke-dasharray: 7.0,7.0;"/><polygon fill="#000000" points="1562.83,78.74,1553.7738,74.869,1557.8305,78.8114,1553.8881,82.8682,1562.83,78.74" style="stroke: #000000; stroke-width: 0.5;"/><!--MD5=[85692be134d066bcedf93bce82393b42]
link processElements to FigmagicElement--><path d="M677.258,525.25 C734.448,518.741 818.754,501.033 874,453 C955.662,382 987.008,247.13 996.262,196.17 " fill="none" id="processElements-&gt;FigmagicElement" style="stroke: #000000; stroke-width: 0.5;"/><polygon fill="#000000" points="997.138,191.23,991.6305,199.395,996.2665,196.1535,999.508,200.7895,997.138,191.23" style="stroke: #000000; stroke-width: 0.5;"/><!--MD5=[20a99131679788d7f4eb2ae61cf1907a]
link processGraphics to getFileList--><path d="M665.764,385.068 C687.547,389.454 713.226,395.24 736,402 C747.946,405.546 760.812,410.254 771.952,414.627 " fill="none" id="processGraphics-&gt;getFileList" style="stroke: #000000; stroke-width: 0.5; stroke-dasharray: 7.0,7.0;"/><polygon fill="#000000" points="776.613,416.477,769.7232,409.4392,771.9656,414.6326,766.7722,416.875,776.613,416.477" style="stroke: #000000; stroke-width: 0.5;"/><!--MD5=[b15f1e1d35a2399b09b9481442c59065]
link processGraphics to getIds--><path d="M678.471,377.354 C708.579,378.002 743.391,378.75 768.284,379.286 " fill="none" id="processGraphics-&gt;getIds" style="stroke: #000000; stroke-width: 0.5; stroke-dasharray: 7.0,7.0;"/><polygon fill="#000000" points="773.44,379.397,764.529,375.2026,768.4412,379.2885,764.3553,383.2007,773.44,379.397" style="stroke: #000000; stroke-width: 0.5;"/><!--MD5=[415eb3b1ebe17f3bce8d22f05754a7da]
link processGraphics to getIdString--><path d="M661.001,365.481 C691.501,358.43 731.318,349.225 760.774,342.415 " fill="none" id="processGraphics-&gt;getIdString" style="stroke: #000000; stroke-width: 0.5; stroke-dasharray: 7.0,7.0;"/><polygon fill="#000000" points="765.778,341.258,756.1086,339.3864,760.9063,342.3834,757.9093,347.1812,765.778,341.258" style="stroke: #000000; stroke-width: 0.5;"/><!--MD5=[0c2e3f364d95cd7f4dbe44f38af526d0]
link processTokens to Token--><path d="M675.079,682 C757.449,682 903.217,682 967.511,682 " fill="none" id="processTokens-&gt;Token" style="stroke: #000000; stroke-width: 0.5;"/><polygon fill="#000000" points="972.737,682,963.737,678,967.737,682,963.737,686,972.737,682" style="stroke: #000000; stroke-width: 0.5;"/><!--MD5=[5e8052e1c3065b8a7f75447e0673530b]
link Token to makeBorderWidthTokens--><path d="M1002.538,695.016 C1006.72,738.489 1026.25,879.977 1107,952 C1117.09,961.002 1129.58,967.353 1142.54,971.822 " fill="none" id="Token-&gt;makeBorderWidthTokens" style="stroke: #000000; stroke-width: 0.5; stroke-dasharray: 7.0,7.0;"/><polygon fill="#000000" points="1147.33,973.385,1140.0227,966.7818,1142.5785,971.8283,1137.532,974.3841,1147.33,973.385" style="stroke: #000000; stroke-width: 0.5;"/><!--MD5=[060381e5f69c3fec5a2bdabe2d42d96d]
link Token to makeColorTokens--><path d="M1003.753,694.986 C1011.06,733.004 1037.77,844.856 1107,900 C1119.97,910.33 1136.28,916.71 1152.45,920.61 " fill="none" id="Token-&gt;makeColorTokens" style="stroke: #000000; stroke-width: 0.5; stroke-dasharray: 7.0,7.0;"/><polygon fill="#000000" points="1157.47,921.742,1149.587,915.8379,1152.5956,920.6283,1147.8052,923.6369,1157.47,921.742" style="stroke: #000000; stroke-width: 0.5;"/><!--MD5=[bfe110a9102803657e4f9c4b0cad9d91]
link Token to makeDelayTokens--><path d="M1005.982,695.069 C1017.44,726.427 1050.92,806.273 1107,846 C1120.71,855.709 1137.44,861.961 1153.8,865.977 " fill="none" id="Token-&gt;makeDelayTokens" style="stroke: #000000; stroke-width: 0.5; stroke-dasharray: 7.0,7.0;"/><polygon fill="#000000" points="1158.87,867.153,1151.0054,861.2245,1153.9991,866.0242,1149.1993,869.0179,1158.87,867.153" style="stroke: #000000; stroke-width: 0.5;"/><!--MD5=[e96aa8adc6876879c422e8b00d26ccac]
link Token to makeDurationTokens--><path d="M1009.77,694.306 C1025.74,717.086 1063.16,765.797 1107,791 C1121.03,799.068 1137.34,804.826 1153.14,808.931 " fill="none" id="Token-&gt;makeDurationTokens" style="stroke: #000000; stroke-width: 0.5; stroke-dasharray: 7.0,7.0;"/><polygon fill="#000000" points="1158.02,810.153,1150.2605,804.0875,1153.1696,808.939,1148.3181,811.8481,1158.02,810.153" style="stroke: #000000; stroke-width: 0.5;"/><!--MD5=[8303d4920480f1ae5f59adce111b756f]
link Token to makeEasingTokens--><path d="M1018.08,692.295 C1038.37,704.5 1074.1,724.727 1107,737 C1124.26,743.439 1143.58,748.71 1161.32,752.831 " fill="none" id="Token-&gt;makeEasingTokens" style="stroke: #000000; stroke-width: 0.5; stroke-dasharray: 7.0,7.0;"/><polygon fill="#000000" points="1166.28,753.963,1158.381,748.0804,1161.4026,752.8626,1156.6204,755.8842,1166.28,753.963" style="stroke: #000000; stroke-width: 0.5;"/><!--MD5=[07309b2cfc61a349d56650cf5fe85e29]
link Token to makeFontSizeTokens--><path d="M1027.48,685.203 C1057.53,688.908 1108.24,695.16 1150.15,700.326 " fill="none" id="Token-&gt;makeFontSizeTokens" style="stroke: #000000; stroke-width: 0.5; stroke-dasharray: 7.0,7.0;"/><polygon fill="#000000" points="1155.21,700.951,1146.7697,695.8754,1150.2479,700.3366,1145.7867,703.8148,1155.21,700.951" style="stroke: #000000; stroke-width: 0.5;"/><!--MD5=[1b7966ea8eb3a1ed38a486923e9d01e1]
link Token to makeFontTokens--><path d="M1027.48,678.797 C1059.78,674.815 1115.93,667.892 1159.37,662.537 " fill="none" id="Token-&gt;makeFontTokens" style="stroke: #000000; stroke-width: 0.5; stroke-dasharray: 7.0,7.0;"/><polygon fill="#000000" points="1164.33,661.925,1154.9149,659.0345,1159.3662,662.5253,1155.8753,666.9766,1164.33,661.925" style="stroke: #000000; stroke-width: 0.5;"/><!--MD5=[1bcf2a892c9ea251b1147f1017206ad1]
link Token to makeFontWeightTokens--><path d="M1018.53,672.001 C1038.97,660.344 1074.55,641.133 1107,629 C1122.8,623.093 1140.27,617.97 1156.67,613.743 " fill="none" id="Token-&gt;makeFontWeightTokens" style="stroke: #000000; stroke-width: 0.5; stroke-dasharray: 7.0,7.0;"/><polygon fill="#000000" points="1161.73,612.46,1152.0231,610.7939,1156.8833,613.6885,1153.9886,618.5486,1161.73,612.46" style="stroke: #000000; stroke-width: 0.5;"/><!--MD5=[d61b69138a995338fad7b4dcdf2accad]
link Token to makeLetterSpacingTokens--><path d="M1009.75,669.533 C1025.69,646.441 1063.08,597.008 1107,571 C1119.11,563.832 1132.93,558.349 1146.68,554.163 " fill="none" id="Token-&gt;makeLetterSpacingTokens" style="stroke: #000000; stroke-width: 0.5; stroke-dasharray: 7.0,7.0;"/><polygon fill="#000000" points="1151.73,552.678,1141.9662,551.3863,1146.9341,554.0919,1144.2285,559.0598,1151.73,552.678" style="stroke: #000000; stroke-width: 0.5;"/><!--MD5=[35ac82a72499f1bb3f75a5d757f66ac5]
link Token to makeLineHeightTokens--><path d="M1005.694,668.918 C1016.72,636.714 1049.67,553.158 1107,511 C1118.85,502.286 1133.06,496.181 1147.36,491.906 " fill="none" id="Token-&gt;makeLineHeightTokens" style="stroke: #000000; stroke-width: 0.5; stroke-dasharray: 7.0,7.0;"/><polygon fill="#000000" points="1152.21,490.525,1142.458,489.1468,1147.4017,491.8963,1144.6522,496.84,1152.21,490.525" style="stroke: #000000; stroke-width: 0.5;"/><!--MD5=[a683ea1e230617bf828a4b001e7011f2]
link Token to makeMediaQueryTokens--><path d="M1003.507,669.019 C1010.26,629.908 1035.87,512.26 1107,453 C1117.37,444.362 1129.99,438.254 1142.99,433.944 " fill="none" id="Token-&gt;makeMediaQueryTokens" style="stroke: #000000; stroke-width: 0.5; stroke-dasharray: 7.0,7.0;"/><polygon fill="#000000" points="1147.8,432.436,1138.0146,431.3201,1143.0303,433.9359,1140.4144,438.9516,1147.8,432.436" style="stroke: #000000; stroke-width: 0.5;"/><!--MD5=[c5a5aef55e537c6581d81bbe2de777f1]
link Token to makeOpacityTokens--><path d="M1002.106,669.016 C1004.954,623.616 1020.83,470.587 1107,394 C1118.36,383.905 1132.81,377.409 1147.56,373.268 " fill="none" id="Token-&gt;makeOpacityTokens" style="stroke: #000000; stroke-width: 0.5; stroke-dasharray: 7.0,7.0;"/><polygon fill="#000000" points="1152.57,371.952,1142.8488,370.3713,1147.7343,373.2231,1144.8825,378.1085,1152.57,371.952" style="stroke: #000000; stroke-width: 0.5;"/><!--MD5=[d9a9a86e2cf1cecdac39faefed05e1a3]
link Token to makeRadiusTokens--><path d="M1001.237,668.773 C1000.986,617.83 1007.22,432.513 1107,339 C1118.49,328.236 1133.46,321.519 1148.74,317.384 " fill="none" id="Token-&gt;makeRadiusTokens" style="stroke: #000000; stroke-width: 0.5; stroke-dasharray: 7.0,7.0;"/><polygon fill="#000000" points="1153.93,316.079,1144.228,314.3846,1149.0797,317.2934,1146.171,322.1451,1153.93,316.079" style="stroke: #000000; stroke-width: 0.5;"/><!--MD5=[3cecc04d95805b6410d29e2355ef413b]
link Token to makeShadowTokens--><path d="M1003.193,668.837 C1011.47,606.464 1049.64,341.347 1107,285 C1117.86,274.33 1132.1,267.51 1146.81,263.2 " fill="none" id="Token-&gt;makeShadowTokens" style="stroke: #000000; stroke-width: 0.5; stroke-dasharray: 7.0,7.0;"/><polygon fill="#000000" points="1151.82,261.83,1142.0854,260.3341,1146.9955,263.1432,1144.1865,268.0533,1151.82,261.83" style="stroke: #000000; stroke-width: 0.5;"/><!--MD5=[06482ea79a44545ae27b4c7255c288ba]
link Token to makeSpacingTokens--><path d="M1003.315,695.141 C1012.01,756.225 1051.28,1011.729 1107,1066 C1117.91,1076.624 1132.17,1083.426 1146.88,1087.733 " fill="none" id="Token-&gt;makeSpacingTokens" style="stroke: #000000; stroke-width: 0.5; stroke-dasharray: 7.0,7.0;"/><polygon fill="#000000" points="1151.88,1089.1,1144.2483,1082.8744,1147.0559,1087.7854,1142.145,1090.593,1151.88,1089.1" style="stroke: #000000; stroke-width: 0.5;"/><!--MD5=[52dd4996ed0d1bd050353cac0c98c764]
link Token to makeZindexTokens--><path d="M1001.42,695.076 C1001.866,744.614 1010.39,922.457 1107,1012 C1118.54,1022.7 1133.54,1029.392 1148.83,1033.523 " fill="none" id="Token-&gt;makeZindexTokens" style="stroke: #000000; stroke-width: 0.5; stroke-dasharray: 7.0,7.0;"/><polygon fill="#000000" points="1154.02,1034.828,1146.2782,1028.7399,1149.1732,1033.5999,1144.3132,1036.4948,1154.02,1034.828" style="stroke: #000000; stroke-width: 0.5;"/><script type="text/plantuml"><![CDATA[MD5=[aaa66bb88a34f38701baf7a4e6126cf4]
@startuml

scale max 1920 width
left to right direction

skinparam nodesep 21
skinparam ranksep 43
skinparam monochrome true
skinparam shadowing false
skinparam defaultFontName Tahoma
skinparam defaultFontSize 12
skinparam roundCorner 6
skinparam dpi 150
skinparam arrowColor black
skinparam arrowThickness 0.5
skinparam packageTitleAlignment left

skinparam usecase {
  borderThickness 0.5
}

skinparam rectangle {
  borderThickness 0.5
}

skinparam component {
  borderThickness 1
}


package "Main" {
  (<b>index</b>)
}


package "Controllers" {
  (FigmagicController)
}

package "Usecases" {
  (createElements)
  (createGraphics)
  (createTokens)
}

package "Usecase Interactors -Common" {
  (createPage)
}

package "Usecase Interactors -Elements" {
  (processElements)
  (writeElements)
}

package "Usecase Interactors -Graphics" {
  (getFileList)
  (getIds)
  (getIdString)
  (processGraphics)
  (writeGraphics)
}

package "Usecase Interactors -Tokens" {
  (processTokens)
  (writeTokens)
}

package "Entities" {
  (baseConfig)
  (Config)
  (createConfiguration)
  (FigmagicElement)
  (getFileContents)
  (getTokenMatch)
  (makeBorderWidthTokens)
  (makeColorTokens)
  (makeDelayTokens)
  (makeDurationTokens)
  (makeEasingTokens)
  (makeFontSizeTokens)
  (makeFontTokens)
  (makeFontWeightTokens)
  (makeLetterSpacingTokens)
  (makeLineHeightTokens)
  (makeMediaQueryTokens)
  (makeOpacityTokens)
  (makeRadiusTokens)
  (makeShadowTokens)
  (makeSpacingTokens)
  (makeZindexTokens)
  (parseCliArgs)
  (parseCssFromElement)
  rectangle "parsers" as _parsers
  (parseTypographyStylingFromElement)
  (processNestedCss)
  (sliceOutObjectFromFile)
  (Token)
  (validateConfig)
}

(Config) ..> (baseConfig)
(Config) ..> (createConfiguration)
(Config) ..> (validateConfig)
(createConfiguration) ..> (parseCliArgs)
(createElements) --> (createPage)
(createElements) --> (processElements)
(createElements) --> (writeElements)
(createGraphics) --> (createPage)
(createGraphics) --> (processGraphics)
(createGraphics) --> (writeGraphics)
(createTokens) --> (createPage)
(createTokens) --> (processTokens)
(createTokens) --> (writeTokens)
(FigmagicController) --> (createElements)
(FigmagicController) --> (createGraphics)
(FigmagicController) --> (createTokens)
(FigmagicElement) ..> (parseCssFromElement)
(FigmagicElement) ..> (parseTypographyStylingFromElement)
(FigmagicElement) ..> (processNestedCss)
(getFileContents) ..> (sliceOutObjectFromFile)
(<b>index</b>) ---[thickness=1]> (Config)
(<b>index</b>) --[thickness=1]> (FigmagicController)
(parseCssFromElement) ..> (getFileContents)
(parseCssFromElement) ..> _parsers
_parsers ..> (getTokenMatch)
(parseTypographyStylingFromElement) ..> (getFileContents)
(parseTypographyStylingFromElement) ..> (getTokenMatch)
(processElements) ----> (FigmagicElement)
(processGraphics) ..> (getFileList)
(processGraphics) ..> (getIds)
(processGraphics) ..> (getIdString)
(processTokens) ----> (Token)
(Token) ..> (makeBorderWidthTokens)
(Token) ..> (makeColorTokens)
(Token) ..> (makeDelayTokens)
(Token) ..> (makeDurationTokens)
(Token) ..> (makeEasingTokens)
(Token) ..> (makeFontSizeTokens)
(Token) ..> (makeFontTokens)
(Token) ..> (makeFontWeightTokens)
(Token) ..> (makeLetterSpacingTokens)
(Token) ..> (makeLineHeightTokens)
(Token) ..> (makeMediaQueryTokens)
(Token) ..> (makeOpacityTokens)
(Token) ..> (makeRadiusTokens)
(Token) ..> (makeShadowTokens)
(Token) ..> (makeSpacingTokens)
(Token) ..> (makeZindexTokens)

@enduml


' View and edit on https://arkit.pro
]]></script></g></svg>