<?xml version="1.0" encoding="UTF-8" standalone="no"?><svg xmlns="http://www.w3.org/2000/svg" xmlns:xlink="http://www.w3.org/1999/xlink" contentScriptType="application/ecmascript" contentStyleType="text/css" height="1243px" preserveAspectRatio="none" style="width:1724px;height:1243px;" version="1.1" viewBox="0 0 1724 1243" width="1724px" zoomAndPan="magnify"><defs/><g><!--MD5=[e80bd461753d6c5ec111731420959425]
cluster Main--><path d="M25,645 L55,645 A4.5,4.5 0 0 1 58,648 L65,665.4844 L106,665.4844 A3,3 0 0 1 109,668.4844 L109,717 A3,3 0 0 1 106,720 L25,720 A3,3 0 0 1 22,717 L22,648 A3,3 0 0 1 25,645 " fill="#FFFFFF" style="stroke: #000000; stroke-width: 1.5;"/><line style="stroke: #000000; stroke-width: 1.5;" x1="22" x2="65" y1="665.4844" y2="665.4844"/><text fill="#000000" font-family="Tahoma, sans-serif" font-size="12" font-weight="bold" lengthAdjust="spacingAndGlyphs" textLength="30" x="26" y="659.0059">Main</text><!--MD5=[ed1d20ea533a2a0e7df5ba3c35e56ced]
cluster Controllers--><path d="M136,472 L210,472 A4.5,4.5 0 0 1 213,475 L220,492.4844 L297,492.4844 A3,3 0 0 1 300,495.4844 L300,550 A3,3 0 0 1 297,553 L136,553 A3,3 0 0 1 133,550 L133,475 A3,3 0 0 1 136,472 " fill="#FFFFFF" style="stroke: #000000; stroke-width: 1.5;"/><line style="stroke: #000000; stroke-width: 1.5;" x1="133" x2="220" y1="492.4844" y2="492.4844"/><text fill="#000000" font-family="Tahoma, sans-serif" font-size="12" font-weight="bold" lengthAdjust="spacingAndGlyphs" textLength="74" x="137" y="486.0059">Controllers</text><!--MD5=[6326b81c113285a9d7424a8f38b27174]
cluster Usecases--><path d="M327,398 L392,398 A4.5,4.5 0 0 1 395,401 L402,418.4844 L474,418.4844 A3,3 0 0 1 477,421.4844 L477,572 A3,3 0 0 1 474,575 L327,575 A3,3 0 0 1 324,572 L324,401 A3,3 0 0 1 327,398 " fill="#FFFFFF" style="stroke: #000000; stroke-width: 1.5;"/><line style="stroke: #000000; stroke-width: 1.5;" x1="324" x2="402" y1="418.4844" y2="418.4844"/><text fill="#000000" font-family="Tahoma, sans-serif" font-size="12" font-weight="bold" lengthAdjust="spacingAndGlyphs" textLength="65" x="328" y="412.0059">Usecases</text><!--MD5=[ffbffd7b01f9e7601b10668c327c9f05]
cluster Usecase Interactors - Common--><path d="M505,181 L714,181 A4.5,4.5 0 0 1 717,184 L724,201.4844 L724,201.4844 A3,3 0 0 1 727,204.4844 L727,253 A3,3 0 0 1 724,256 L505,256 A3,3 0 0 1 502,253 L502,184 A3,3 0 0 1 505,181 " fill="#FFFFFF" style="stroke: #000000; stroke-width: 1.5;"/><line style="stroke: #000000; stroke-width: 1.5;" x1="502" x2="724" y1="201.4844" y2="201.4844"/><text fill="#000000" font-family="Tahoma, sans-serif" font-size="12" font-weight="bold" lengthAdjust="spacingAndGlyphs" textLength="209" x="506" y="195.0059">Usecase Interactors - Common</text><!--MD5=[5f4ea9338cfb5a43b94aef063f74a3a1]
cluster Usecase Interactors - Elements--><path d="M504,473 L715,473 A4.5,4.5 0 0 1 718,476 L725,493.4844 L725,493.4844 A3,3 0 0 1 728,496.4844 L728,600 A3,3 0 0 1 725,603 L504,603 A3,3 0 0 1 501,600 L501,476 A3,3 0 0 1 504,473 " fill="#FFFFFF" style="stroke: #000000; stroke-width: 1.5;"/><line style="stroke: #000000; stroke-width: 1.5;" x1="501" x2="725" y1="493.4844" y2="493.4844"/><text fill="#000000" font-family="Tahoma, sans-serif" font-size="12" font-weight="bold" lengthAdjust="spacingAndGlyphs" textLength="211" x="505" y="487.0059">Usecase Interactors - Elements</text><!--MD5=[c9d6d11dd58d037c4533bde0faa05891]
cluster Usecase Interactors - Graphics--><path d="M537.5,280 L746.5,280 A4.5,4.5 0 0 1 749.5,283 L756.5,300.4844 L862,300.4844 A3,3 0 0 1 865,303.4844 L865,446 A3,3 0 0 1 862,449 L537.5,449 A3,3 0 0 1 534.5,446 L534.5,283 A3,3 0 0 1 537.5,280 " fill="#FFFFFF" style="stroke: #000000; stroke-width: 1.5;"/><line style="stroke: #000000; stroke-width: 1.5;" x1="534.5" x2="756.5" y1="300.4844" y2="300.4844"/><text fill="#000000" font-family="Tahoma, sans-serif" font-size="12" font-weight="bold" lengthAdjust="spacingAndGlyphs" textLength="209" x="538.5" y="294.0059">Usecase Interactors - Graphics</text><!--MD5=[bd6a86439868c6e4c6565fa054fa9128]
cluster Usecase Interactors - Tokens--><path d="M511,627 L709,627 A4.5,4.5 0 0 1 712,630 L719,647.4844 L719,647.4844 A3,3 0 0 1 722,650.4844 L722,750 A3,3 0 0 1 719,753 L511,753 A3,3 0 0 1 508,750 L508,630 A3,3 0 0 1 511,627 " fill="#FFFFFF" style="stroke: #000000; stroke-width: 1.5;"/><line style="stroke: #000000; stroke-width: 1.5;" x1="508" x2="719" y1="647.4844" y2="647.4844"/><text fill="#000000" font-family="Tahoma, sans-serif" font-size="12" font-weight="bold" lengthAdjust="spacingAndGlyphs" textLength="198" x="512" y="641.0059">Usecase Interactors - Tokens</text><!--MD5=[114f4823940f317c08f5bedd633c9afd]
cluster Entities--><path d="M921,24 L971,24 A4.5,4.5 0 0 1 974,27 L981,44.4844 L1709,44.4844 A3,3 0 0 1 1712,47.4844 L1712,1228 A3,3 0 0 1 1709,1231 L921,1231 A3,3 0 0 1 918,1228 L918,27 A3,3 0 0 1 921,24 " fill="#FFFFFF" style="stroke: #000000; stroke-width: 1.5;"/><line style="stroke: #000000; stroke-width: 1.5;" x1="918" x2="981" y1="44.4844" y2="44.4844"/><text fill="#000000" font-family="Tahoma, sans-serif" font-size="12" font-weight="bold" lengthAdjust="spacingAndGlyphs" textLength="50" x="922" y="38.0059">Entities</text><ellipse cx="65.7487" cy="691.242" fill="#F8F8F8" rx="27.7487" ry="13.242" style="stroke: #383838; stroke-width: 0.5;"/><text fill="#000000" font-family="Tahoma, sans-serif" font-size="12" font-weight="bold" lengthAdjust="spacingAndGlyphs" textLength="35" x="48.2487" y="694.9842">index</text><ellipse cx="216.6025" cy="520.9205" fill="#F8F8F8" rx="67.6025" ry="15.9205" style="stroke: #383838; stroke-width: 0.5;"/><text fill="#000000" font-family="Tahoma, sans-serif" font-size="12" lengthAdjust="spacingAndGlyphs" textLength="107" x="163.1025" y="524.6627">FigmagicController</text><ellipse cx="400.3714" cy="495.9743" fill="#F8F8F8" rx="60.3714" ry="14.4743" style="stroke: #383838; stroke-width: 0.5;"/><text fill="#000000" font-family="Tahoma, sans-serif" font-size="12" lengthAdjust="spacingAndGlyphs" textLength="89" x="355.8714" y="499.7165">createElements</text><ellipse cx="400.5993" cy="445.8199" fill="#F8F8F8" rx="59.5993" ry="14.3199" style="stroke: #383838; stroke-width: 0.5;"/><text fill="#000000" font-family="Tahoma, sans-serif" font-size="12" lengthAdjust="spacingAndGlyphs" textLength="87" x="357.0993" y="449.562">createGraphics</text><ellipse cx="400.7187" cy="545.1437" fill="#F8F8F8" rx="56.2187" ry="13.6437" style="stroke: #383838; stroke-width: 0.5;"/><text fill="#000000" font-family="Tahoma, sans-serif" font-size="12" lengthAdjust="spacingAndGlyphs" textLength="78" x="361.7187" y="548.8859">createTokens</text><ellipse cx="614.2548" cy="227.242" fill="#F8F8F8" rx="48.2548" ry="13.242" style="stroke: #383838; stroke-width: 0.5;"/><text fill="#000000" font-family="Tahoma, sans-serif" font-size="12" lengthAdjust="spacingAndGlyphs" textLength="64" x="582.2548" y="230.9842">createPage</text><ellipse cx="614.7352" cy="521.847" fill="#F8F8F8" rx="64.7352" ry="15.347" style="stroke: #383838; stroke-width: 0.5;"/><text fill="#000000" font-family="Tahoma, sans-serif" font-size="12" lengthAdjust="spacingAndGlyphs" textLength="100" x="564.7352" y="525.5892">processElements</text><ellipse cx="614.4558" cy="572.7912" fill="#F8F8F8" rx="56.9558" ry="13.7912" style="stroke: #383838; stroke-width: 0.5;"/><text fill="#000000" font-family="Tahoma, sans-serif" font-size="12" lengthAdjust="spacingAndGlyphs" textLength="80" x="574.4558" y="576.5334">writeElements</text><ellipse cx="801.3051" cy="420.242" fill="#F8F8F8" rx="43.3051" ry="13.242" style="stroke: #383838; stroke-width: 0.5;"/><text fill="#000000" font-family="Tahoma, sans-serif" font-size="12" lengthAdjust="spacingAndGlyphs" textLength="57" x="772.8051" y="423.9842">getFileList</text><ellipse cx="801.663" cy="373.242" fill="#F8F8F8" rx="29.163" ry="13.242" style="stroke: #383838; stroke-width: 0.5;"/><text fill="#000000" font-family="Tahoma, sans-serif" font-size="12" lengthAdjust="spacingAndGlyphs" textLength="37" x="783.163" y="376.9842">getIds</text><ellipse cx="801.5477" cy="326.242" fill="#F8F8F8" rx="47.5477" ry="13.242" style="stroke: #383838; stroke-width: 0.5;"/><text fill="#000000" font-family="Tahoma, sans-serif" font-size="12" lengthAdjust="spacingAndGlyphs" textLength="63" x="770.0477" y="329.9842">getIdString</text><ellipse cx="614.4281" cy="369.1856" fill="#F8F8F8" rx="63.9281" ry="15.1856" style="stroke: #383838; stroke-width: 0.5;"/><text fill="#000000" font-family="Tahoma, sans-serif" font-size="12" lengthAdjust="spacingAndGlyphs" textLength="98" x="565.4281" y="372.9278">processGraphics</text><ellipse cx="614.7187" cy="419.1437" fill="#F8F8F8" rx="56.2187" ry="13.6437" style="stroke: #383838; stroke-width: 0.5;"/><text fill="#000000" font-family="Tahoma, sans-serif" font-size="12" lengthAdjust="spacingAndGlyphs" textLength="78" x="575.7187" y="422.8859">writeGraphics</text><ellipse cx="614.3714" cy="674.9743" fill="#F8F8F8" rx="60.3714" ry="14.4743" style="stroke: #383838; stroke-width: 0.5;"/><text fill="#000000" font-family="Tahoma, sans-serif" font-size="12" lengthAdjust="spacingAndGlyphs" textLength="89" x="569.8714" y="678.7165">processTokens</text><ellipse cx="614.2904" cy="724.242" fill="#F8F8F8" rx="51.7904" ry="13.242" style="stroke: #383838; stroke-width: 0.5;"/><text fill="#000000" font-family="Tahoma, sans-serif" font-size="12" lengthAdjust="spacingAndGlyphs" textLength="69" x="579.7904" y="727.9842">writeTokens</text><ellipse cx="1217.4619" cy="1202.242" fill="#F8F8F8" rx="48.9619" ry="13.242" style="stroke: #383838; stroke-width: 0.5;"/><text fill="#000000" font-family="Tahoma, sans-serif" font-size="12" lengthAdjust="spacingAndGlyphs" textLength="65" x="1184.9619" y="1205.9842">baseConfig</text><ellipse cx="997.663" cy="1151.242" fill="#F8F8F8" rx="29.163" ry="13.242" style="stroke: #383838; stroke-width: 0.5;"/><text fill="#000000" font-family="Tahoma, sans-serif" font-size="12" lengthAdjust="spacingAndGlyphs" textLength="37" x="979.163" y="1154.9842">Config</text><ellipse cx="1217.608" cy="1150.9216" fill="#F8F8F8" rx="70.108" ry="16.4216" style="stroke: #383838; stroke-width: 0.5;"/><text fill="#000000" font-family="Tahoma, sans-serif" font-size="12" lengthAdjust="spacingAndGlyphs" textLength="113" x="1161.108" y="1154.6638">createConfiguration</text><ellipse cx="997.5267" cy="169.1053" fill="#F8F8F8" rx="63.5267" ry="15.1053" style="stroke: #383838; stroke-width: 0.5;"/><text fill="#000000" font-family="Tahoma, sans-serif" font-size="12" lengthAdjust="spacingAndGlyphs" textLength="97" x="949.0267" y="172.8475">FigmagicElement</text><ellipse cx="1434.3714" cy="160.9743" fill="#F8F8F8" rx="60.3714" ry="14.4743" style="stroke: #383838; stroke-width: 0.5;"/><text fill="#000000" font-family="Tahoma, sans-serif" font-size="12" lengthAdjust="spacingAndGlyphs" textLength="89" x="1389.8714" y="164.7165">getFileContents</text><ellipse cx="1616.5993" cy="123.8199" fill="#F8F8F8" rx="59.5993" ry="14.3199" style="stroke: #383838; stroke-width: 0.5;"/><text fill="#000000" font-family="Tahoma, sans-serif" font-size="12" lengthAdjust="spacingAndGlyphs" textLength="87" x="1573.0993" y="127.562">getTokenMatch</text><ellipse cx="1434.7046" cy="1151.242" fill="#F8F8F8" rx="53.2046" ry="13.242" style="stroke: #383838; stroke-width: 0.5;"/><text fill="#000000" font-family="Tahoma, sans-serif" font-size="12" lengthAdjust="spacingAndGlyphs" textLength="71" x="1399.2046" y="1154.9842">parseCliArgs</text><ellipse cx="1217.4695" cy="200.7939" fill="#F8F8F8" rx="76.9695" ry="17.7939" style="stroke: #383838; stroke-width: 0.5;"/><text fill="#000000" font-family="Tahoma, sans-serif" font-size="12" lengthAdjust="spacingAndGlyphs" textLength="129" x="1152.9695" y="204.5361">parseCssFromElement</text><!--MD5=[28b7d3453cd3ec36a722e517ebcf7d57]
entity _parsers--><rect fill="#F8F8F8" height="34.4844" rx="3" ry="3" style="stroke: #000000; stroke-width: 0.5;" width="63" x="1403" y="197"/><text fill="#000000" font-family="Tahoma, sans-serif" font-size="12" lengthAdjust="spacingAndGlyphs" textLength="43" x="1413" y="219.0059">parsers</text><ellipse cx="1217.5414" cy="135.8083" fill="#F8F8F8" rx="114.5414" ry="25.3083" style="stroke: #383838; stroke-width: 0.5;"/><text fill="#000000" font-family="Tahoma, sans-serif" font-size="12" lengthAdjust="spacingAndGlyphs" textLength="211" x="1112.0414" y="139.5505">parseTypographyStylingFromElement</text><ellipse cx="1217.433" cy="73.0866" fill="#F8F8F8" rx="68.433" ry="16.0866" style="stroke: #383838; stroke-width: 0.5;"/><text fill="#000000" font-family="Tahoma, sans-serif" font-size="12" lengthAdjust="spacingAndGlyphs" textLength="109" x="1162.933" y="76.8288">processNestedCss</text><ellipse cx="1217.593" cy="703.1186" fill="#F8F8F8" rx="83.593" ry="19.1186" style="stroke: #383838; stroke-width: 0.5;"/><text fill="#000000" font-family="Tahoma, sans-serif" font-size="12" lengthAdjust="spacingAndGlyphs" textLength="144" x="1145.593" y="706.8608">makeBorderWidthTokens</text><ellipse cx="1217.2768" cy="646.7554" fill="#F8F8F8" rx="66.7768" ry="15.7554" style="stroke: #383838; stroke-width: 0.5;"/><text fill="#000000" font-family="Tahoma, sans-serif" font-size="12" lengthAdjust="spacingAndGlyphs" textLength="105" x="1164.7768" y="650.4976">makeColorTokens</text><ellipse cx="1217.689" cy="593.8378" fill="#F8F8F8" rx="67.189" ry="15.8378" style="stroke: #383838; stroke-width: 0.5;"/><text fill="#000000" font-family="Tahoma, sans-serif" font-size="12" lengthAdjust="spacingAndGlyphs" textLength="106" x="1164.689" y="597.58">makeDelayTokens</text><ellipse cx="1217.3686" cy="538.7737" fill="#F8F8F8" rx="74.3686" ry="17.2737" style="stroke: #383838; stroke-width: 0.5;"/><text fill="#000000" font-family="Tahoma, sans-serif" font-size="12" lengthAdjust="spacingAndGlyphs" textLength="123" x="1155.8686" y="542.5159">makeDurationTokens</text><ellipse cx="1217.6876" cy="483.8375" fill="#F8F8F8" rx="69.6876" ry="16.3375" style="stroke: #383838; stroke-width: 0.5;"/><text fill="#000000" font-family="Tahoma, sans-serif" font-size="12" lengthAdjust="spacingAndGlyphs" textLength="112" x="1161.6876" y="487.5797">makeEasingTokens</text><ellipse cx="1217.2999" cy="428.86" fill="#F8F8F8" rx="74.7999" ry="17.36" style="stroke: #383838; stroke-width: 0.5;"/><text fill="#000000" font-family="Tahoma, sans-serif" font-size="12" lengthAdjust="spacingAndGlyphs" textLength="124" x="1155.2999" y="432.6022">makeFontSizeTokens</text><ellipse cx="1217.3309" cy="374.7662" fill="#F8F8F8" rx="64.3309" ry="15.2662" style="stroke: #383838; stroke-width: 0.5;"/><text fill="#000000" font-family="Tahoma, sans-serif" font-size="12" lengthAdjust="spacingAndGlyphs" textLength="99" x="1167.8309" y="378.5084">makeFontTokens</text><ellipse cx="1217.4245" cy="320.0849" fill="#F8F8F8" rx="80.9245" ry="18.5849" style="stroke: #383838; stroke-width: 0.5;"/><text fill="#000000" font-family="Tahoma, sans-serif" font-size="12" lengthAdjust="spacingAndGlyphs" textLength="138" x="1148.4245" y="323.8271">makeFontWeightTokens</text><ellipse cx="1217.6857" cy="259.8371" fill="#F8F8F8" rx="87.1857" ry="19.8371" style="stroke: #383838; stroke-width: 0.5;"/><text fill="#000000" font-family="Tahoma, sans-serif" font-size="12" lengthAdjust="spacingAndGlyphs" textLength="152" x="1141.6857" y="263.5793">makeLetterSpacingTokens</text><ellipse cx="1217.7198" cy="1095.144" fill="#F8F8F8" rx="78.7198" ry="18.144" style="stroke: #383838; stroke-width: 0.5;"/><text fill="#000000" font-family="Tahoma, sans-serif" font-size="12" lengthAdjust="spacingAndGlyphs" textLength="133" x="1151.2198" y="1098.8861">makeLineHeightTokens</text><ellipse cx="1217.2558" cy="1036.8512" fill="#F8F8F8" rx="82.2558" ry="18.8512" style="stroke: #383838; stroke-width: 0.5;"/><text fill="#000000" font-family="Tahoma, sans-serif" font-size="12" lengthAdjust="spacingAndGlyphs" textLength="141" x="1146.7558" y="1040.5933">makeMediaQueryTokens</text><ellipse cx="1217.7259" cy="979.8452" fill="#F8F8F8" rx="72.2259" ry="16.8452" style="stroke: #383838; stroke-width: 0.5;"/><text fill="#000000" font-family="Tahoma, sans-serif" font-size="12" lengthAdjust="spacingAndGlyphs" textLength="118" x="1158.7259" y="983.5874">makeOpacityTokens</text><ellipse cx="1217.6876" cy="924.8375" fill="#F8F8F8" rx="69.6876" ry="16.3375" style="stroke: #383838; stroke-width: 0.5;"/><text fill="#000000" font-family="Tahoma, sans-serif" font-size="12" lengthAdjust="spacingAndGlyphs" textLength="112" x="1161.6876" y="928.5797">makeRadiusTokens</text><ellipse cx="1217.5802" cy="870.016" fill="#F8F8F8" rx="73.0802" ry="17.016" style="stroke: #383838; stroke-width: 0.5;"/><text fill="#000000" font-family="Tahoma, sans-serif" font-size="12" lengthAdjust="spacingAndGlyphs" textLength="120" x="1157.5802" y="873.7582">makeShadowTokens</text><ellipse cx="1217.5802" cy="815.016" fill="#F8F8F8" rx="73.0802" ry="17.016" style="stroke: #383838; stroke-width: 0.5;"/><text fill="#000000" font-family="Tahoma, sans-serif" font-size="12" lengthAdjust="spacingAndGlyphs" textLength="120" x="1157.5802" y="818.7582">makeSpacingTokens</text><ellipse cx="1217.6876" cy="759.8375" fill="#F8F8F8" rx="69.6876" ry="16.3375" style="stroke: #383838; stroke-width: 0.5;"/><text fill="#000000" font-family="Tahoma, sans-serif" font-size="12" lengthAdjust="spacingAndGlyphs" textLength="112" x="1161.6876" y="763.5797">makeZindexTokens</text><ellipse cx="1616.5995" cy="177.8199" fill="#F8F8F8" rx="79.5995" ry="18.3199" style="stroke: #383838; stroke-width: 0.5;"/><text fill="#000000" font-family="Tahoma, sans-serif" font-size="12" lengthAdjust="spacingAndGlyphs" textLength="135" x="1549.0995" y="181.5621">sliceOutObjectFromFile</text><ellipse cx="997.7487" cy="675.242" fill="#F8F8F8" rx="27.7487" ry="13.242" style="stroke: #383838; stroke-width: 0.5;"/><text fill="#000000" font-family="Tahoma, sans-serif" font-size="12" lengthAdjust="spacingAndGlyphs" textLength="35" x="980.2487" y="678.9842">Token</text><!--MD5=[21e238070261533280eec9f33fe5e091]
link Config to baseConfig--><path d="M1022.92,1157.6365 C1044.05,1163.301 1075.45,1171.5326 1103,1178 C1125.96,1183.3914 1151.67,1188.8726 1172.8,1193.2332 " fill="none" id="Config-&gt;baseConfig" style="stroke: #000000; stroke-width: 0.5; stroke-dasharray: 7.0,7.0;"/><polygon fill="#000000" points="1177.79,1194.2597,1169.7882,1188.5176,1172.8939,1193.2457,1168.1658,1196.3514,1177.79,1194.2597" style="stroke: #000000; stroke-width: 0.5;"/><!--MD5=[4a496dfbe29387ae312870dd7e483a9d]
link Config to createConfiguration--><path d="M1026.55,1151 C1055.61,1151 1102.24,1151 1142.03,1151 " fill="none" id="Config-&gt;createConfiguration" style="stroke: #000000; stroke-width: 0.5; stroke-dasharray: 7.0,7.0;"/><polygon fill="#000000" points="1147.35,1151,1138.35,1147,1142.35,1151,1138.35,1155,1147.35,1151" style="stroke: #000000; stroke-width: 0.5;"/><!--MD5=[594ff9a34a74a2e9c01b029559b0f874]
link createConfiguration to parseCliArgs--><path d="M1287.71,1151 C1316.37,1151 1349.21,1151 1376.45,1151 " fill="none" id="createConfiguration-&gt;parseCliArgs" style="stroke: #000000; stroke-width: 0.5; stroke-dasharray: 7.0,7.0;"/><polygon fill="#000000" points="1381.47,1151,1372.47,1147,1376.47,1151,1372.47,1155,1381.47,1151" style="stroke: #000000; stroke-width: 0.5;"/><!--MD5=[a0158201e805ee7219892e1de70e5960]
link createElements to createPage--><path d="M455.928,490.037 C467.142,486.254 477.732,480.3 485,471 C496.712,456.013 483.279,316.349 493,300 C511.435,268.996 548.617,249.488 576.83,238.52 " fill="none" id="createElements-&gt;createPage" style="stroke: #000000; stroke-width: 0.5;"/><polygon fill="#000000" points="581.631,236.7,571.7975,236.151,576.9558,238.4728,574.634,243.6312,581.631,236.7" style="stroke: #000000; stroke-width: 0.5;"/><!--MD5=[125096df3920c540cd18eee64bd470c9]
link createElements to processElements--><path d="M454.723,502.527 C484.057,506.125 520.631,510.61 551.281,514.369 " fill="none" id="createElements-&gt;processElements" style="stroke: #000000; stroke-width: 0.5;"/><polygon fill="#000000" points="556.538,515.014,548.0918,509.9483,551.5752,514.4054,547.1181,517.8888,556.538,515.014" style="stroke: #000000; stroke-width: 0.5;"/><!--MD5=[ba991f2d9e42c752e72ea379236e6d2b]
link createElements to writeElements--><path d="M453.513,503.046 C465.092,506.772 476.452,512.428 485,521 C493.837,529.863 483.788,539.527 493,548 C509.014,562.73 531.355,569.697 552.456,572.746 " fill="none" id="createElements-&gt;writeElements" style="stroke: #000000; stroke-width: 0.5;"/><polygon fill="#000000" points="557.503,573.406,549.0963,568.2749,552.545,572.7589,548.061,576.2077,557.503,573.406" style="stroke: #000000; stroke-width: 0.5;"/><!--MD5=[250af0a5938fe4302c6aaad3cd02ea95]
link createGraphics to createPage--><path d="M407.924,431.186 C420.749,402.923 451.868,340.513 493,300 C519.576,273.823 557.253,252.928 583.373,240.31 " fill="none" id="createGraphics-&gt;createPage" style="stroke: #000000; stroke-width: 0.5;"/><polygon fill="#000000" points="588.11,238.05,578.2647,238.3136,583.5969,240.2023,581.7083,245.5345,588.11,238.05" style="stroke: #000000; stroke-width: 0.5;"/><!--MD5=[22b05a1c2866d869d212575558cb2fe9]
link createGraphics to processGraphics--><path d="M421.727,432.416 C439.726,420.902 467.134,404.751 493,395 C512.661,387.588 534.965,382.037 554.993,378.01 " fill="none" id="createGraphics-&gt;processGraphics" style="stroke: #000000; stroke-width: 0.5;"/><polygon fill="#000000" points="560.033,377.019,550.4299,374.8327,555.1272,377.9847,551.9751,382.682,560.033,377.019" style="stroke: #000000; stroke-width: 0.5;"/><!--MD5=[163edf993cf6397f6736819145469053]
link createGraphics to writeGraphics--><path d="M453.633,439.36 C485.752,435.27 526.858,430.035 559.345,425.897 " fill="none" id="createGraphics-&gt;writeGraphics" style="stroke: #000000; stroke-width: 0.5;"/><polygon fill="#000000" points="564.482,425.243,555.0489,422.4116,559.522,425.8744,556.0592,430.3475,564.482,425.243" style="stroke: #000000; stroke-width: 0.5;"/><!--MD5=[b6ca0689385c7f179de4b31f551963ed]
link createTokens to createPage--><path d="M453.795,540.445 C465.801,536.853 477.289,530.863 485,521 C500.134,501.642 480.554,321.186 493,300 C511.271,268.899 548.477,249.406 576.741,238.47 " fill="none" id="createTokens-&gt;createPage" style="stroke: #000000; stroke-width: 0.5;"/><polygon fill="#000000" points="581.552,236.65,571.7199,236.0753,576.8722,238.4106,574.5369,243.5629,581.552,236.65" style="stroke: #000000; stroke-width: 0.5;"/><!--MD5=[092b4615a0347e40450b4cc78e12278f]
link createTokens to processTokens--><path d="M422.213,557.702 C460.916,581.434 544.148,632.473 586.924,658.703 " fill="none" id="createTokens-&gt;processTokens" style="stroke: #000000; stroke-width: 0.5;"/><polygon fill="#000000" points="591.435,661.469,585.8552,653.3532,587.1731,658.8544,581.6719,660.1723,591.435,661.469" style="stroke: #000000; stroke-width: 0.5;"/><!--MD5=[b8f430627af767ca22b39d5df52cf59b]
link createTokens to writeTokens--><path d="M405.402,558.815 C414.853,589.574 442.028,663.837 493,700 C511.602,713.198 535.688,719.558 557.43,722.489 " fill="none" id="createTokens-&gt;writeTokens" style="stroke: #000000; stroke-width: 0.5;"/><polygon fill="#000000" points="562.61,723.13,554.1697,718.0544,557.6479,722.5156,553.1867,725.9938,562.61,723.13" style="stroke: #000000; stroke-width: 0.5;"/><!--MD5=[94080402db329286e3cb0fad82d23893]
link FigmagicController to createElements--><path d="M275.336,513.055 C296.825,510.104 321.171,506.759 342.578,503.819 " fill="none" id="FigmagicController-&gt;createElements" style="stroke: #000000; stroke-width: 0.5;"/><polygon fill="#000000" points="347.666,503.12,338.2056,500.3813,342.7125,503.8001,339.2937,508.307,347.666,503.12" style="stroke: #000000; stroke-width: 0.5;"/><!--MD5=[93fb1ca76bb43e2ed089d7baa9df75d9]
link FigmagicController to createGraphics--><path d="M243.659,506.099 C263.173,495.387 290.713,481.109 316,471 C328.156,466.14 341.633,461.71 354.149,457.974 " fill="none" id="FigmagicController-&gt;createGraphics" style="stroke: #000000; stroke-width: 0.5;"/><polygon fill="#000000" points="359.077,456.523,349.3136,455.2287,354.2807,457.9356,351.5737,462.9027,359.077,456.523" style="stroke: #000000; stroke-width: 0.5;"/><!--MD5=[20c913071ef86b77abc11a24428abae5]
link FigmagicController to createTokens--><path d="M275.837,528.693 C298.265,531.65 323.744,535.01 345.724,537.909 " fill="none" id="FigmagicController-&gt;createTokens" style="stroke: #000000; stroke-width: 0.5;"/><polygon fill="#000000" points="350.939,538.596,342.5398,533.4527,345.982,537.9417,341.493,541.3839,350.939,538.596" style="stroke: #000000; stroke-width: 0.5;"/><!--MD5=[cf1ea1266e6a4b3f0637fb0c686ac307]
link FigmagicElement to parseCssFromElement--><path d="M1051.83,176.83 C1080.31,181.01 1115.72,186.21 1146.4,190.71 " fill="none" id="FigmagicElement-&gt;parseCssFromElement" style="stroke: #000000; stroke-width: 0.5; stroke-dasharray: 7.0,7.0;"/><polygon fill="#000000" points="1151.67,191.48,1143.3495,186.2103,1146.7234,190.7509,1142.1829,194.1248,1151.67,191.48" style="stroke: #000000; stroke-width: 0.5;"/><!--MD5=[76e1dc550e810c684815fd3736513951]
link FigmagicElement to parseTypographyStylingFromElement--><path d="M1051.27,161.01 C1071.07,158.01 1094.28,154.5 1116.94,151.07 " fill="none" id="FigmagicElement-&gt;parseTypographyStylingFromElement" style="stroke: #000000; stroke-width: 0.5; stroke-dasharray: 7.0,7.0;"/><polygon fill="#000000" points="1122.07,150.3,1112.5755,147.682,1117.1255,151.0431,1113.7644,155.5932,1122.07,150.3" style="stroke: #000000; stroke-width: 0.5;"/><!--MD5=[76e6a92e8b8f374d57b61910e92441db]
link FigmagicElement to processNestedCss--><path d="M1016.25,154.44 C1036.19,138.8 1070.08,114.25 1103,100 C1119.65,92.79 1138.55,87.32 1156.08,83.26 " fill="none" id="FigmagicElement-&gt;processNestedCss" style="stroke: #000000; stroke-width: 0.5; stroke-dasharray: 7.0,7.0;"/><polygon fill="#000000" points="1160.98,82.15,1151.3212,80.2245,1156.1021,83.2482,1153.0784,88.0291,1160.98,82.15" style="stroke: #000000; stroke-width: 0.5;"/><!--MD5=[63adacb7a1907391f979680dce41d23b]
link getFileContents to sliceOutObjectFromFile--><path d="M1490.97,166.24 C1505.64,167.62 1521.74,169.15 1537.36,170.62 " fill="none" id="getFileContents-&gt;sliceOutObjectFromFile" style="stroke: #000000; stroke-width: 0.5; stroke-dasharray: 7.0,7.0;"/><polygon fill="#000000" points="1542.64,171.12,1534.0441,166.3127,1537.661,170.6622,1533.3115,174.2791,1542.64,171.12" style="stroke: #000000; stroke-width: 0.5;"/><!--MD5=[c556e76eb5c46cfa737a8abbcc22cdf8]
link <b>index</b> to Config--><path d="M72.9537,703.835 C102.1794,759.959 228.159,981 399.5,981 C399.5,981 399.5,981 802.5,981 C894.533,981 963.826,1090.558 987.578,1133.771 " fill="none" id="&lt;b&gt;index&lt;/b&gt;-&gt;Config" style="stroke: #000000; stroke-width: 1.0;"/><polygon fill="#000000" points="989.992,1138.222,989.2194,1128.4035,987.6092,1133.8263,982.1863,1132.216,989.992,1138.222" style="stroke: #000000; stroke-width: 1.0;"/><!--MD5=[21c58dea4558e048381d962987728dee]
link <b>index</b> to FigmagicController--><path d="M76.9774,679.046 C102.2479,650.214 166.765,576.604 198.013,540.951 " fill="none" id="&lt;b&gt;index&lt;/b&gt;-&gt;FigmagicController" style="stroke: #000000; stroke-width: 1.0;"/><polygon fill="#000000" points="201.654,536.797,192.7136,540.9285,198.3582,540.5571,198.7297,546.2017,201.654,536.797" style="stroke: #000000; stroke-width: 1.0;"/><!--MD5=[d027cd07cefd42a5dc6e760662606f19]
link parseCssFromElement to getFileContents--><path d="M1278.39,189.86 C1310.57,183.87 1349.89,176.56 1380.89,170.79 " fill="none" id="parseCssFromElement-&gt;getFileContents" style="stroke: #000000; stroke-width: 0.5; stroke-dasharray: 7.0,7.0;"/><polygon fill="#000000" points="1386.18,169.8,1376.6002,167.5137,1381.2643,170.7145,1378.0635,175.3787,1386.18,169.8" style="stroke: #000000; stroke-width: 0.5;"/><!--MD5=[fe25ebe2b7beef7b0de6a8d8177985ce]
link parseCssFromElement to _parsers--><path d="M1292.19,205.46 C1327.78,207.61 1368.87,210.09 1397.54,211.83 " fill="none" id="parseCssFromElement-&gt;_parsers" style="stroke: #000000; stroke-width: 0.5; stroke-dasharray: 7.0,7.0;"/><polygon fill="#000000" points="1402.74,212.14,1393.9957,207.6082,1397.749,211.8405,1393.5166,215.5938,1402.74,212.14" style="stroke: #000000; stroke-width: 0.5;"/><!--MD5=[5ee55609071428ceeedd39ab491d8479]
link _parsers to getTokenMatch--><path d="M1466.05,201.63 C1475.62,197.23 1486.03,191.89 1495,186 C1515.79,172.35 1515.35,161.26 1537,149 C1546.61,143.56 1557.55,139.13 1568.16,135.59 " fill="none" id="_parsers-&gt;getTokenMatch" style="stroke: #000000; stroke-width: 0.5; stroke-dasharray: 7.0,7.0;"/><polygon fill="#000000" points="1573.01,134.03,1563.215,133.0017,1568.2539,135.5725,1565.683,140.6114,1573.01,134.03" style="stroke: #000000; stroke-width: 0.5;"/><!--MD5=[f2f3e6a18f9d90c98cd0628d58f4ee8c]
link parseTypographyStylingFromElement to getFileContents--><path d="M1319.39,147.73 C1338.27,149.93 1357.43,152.15 1374.52,154.14 " fill="none" id="parseTypographyStylingFromElement-&gt;getFileContents" style="stroke: #000000; stroke-width: 0.5; stroke-dasharray: 7.0,7.0;"/><polygon fill="#000000" points="1379.76,154.75,1371.2756,149.7484,1374.7927,154.179,1370.3621,157.6961,1379.76,154.75" style="stroke: #000000; stroke-width: 0.5;"/><!--MD5=[6f0b64f56d47e712764fd786223e0707]
link parseTypographyStylingFromElement to getTokenMatch--><path d="M1331.2,132.59 C1402.74,130.43 1492.7,127.71 1552.04,125.92 " fill="none" id="parseTypographyStylingFromElement-&gt;getTokenMatch" style="stroke: #000000; stroke-width: 0.5; stroke-dasharray: 7.0,7.0;"/><polygon fill="#000000" points="1557.32,125.76,1548.1988,122.0447,1552.3225,125.9171,1548.4501,130.0407,1557.32,125.76" style="stroke: #000000; stroke-width: 0.5;"/><!--MD5=[85692be134d066bcedf93bce82393b42]
link processElements to FigmagicElement--><path d="M677.362,518.229 C734.374,511.702 818.207,493.979 873,446 C954.191,374.905 984.539,240.09 993.412,189.16 " fill="none" id="processElements-&gt;FigmagicElement" style="stroke: #000000; stroke-width: 0.5;"/><polygon fill="#000000" points="994.252,184.22,988.8156,192.4326,993.4233,189.1508,996.705,193.7585,994.252,184.22" style="stroke: #000000; stroke-width: 0.5;"/><!--MD5=[20a99131679788d7f4eb2ae61cf1907a]
link processGraphics to getFileList--><path d="M665.781,378.012 C687.567,382.387 713.244,388.181 736,395 C747.672,398.498 760.224,403.15 771.125,407.492 " fill="none" id="processGraphics-&gt;getFileList" style="stroke: #000000; stroke-width: 0.5; stroke-dasharray: 7.0,7.0;"/><polygon fill="#000000" points="776.008,409.46,769.1553,402.3861,771.3704,407.5912,766.1652,409.8063,776.008,409.46" style="stroke: #000000; stroke-width: 0.5;"/><!--MD5=[b15f1e1d35a2399b09b9481442c59065]
link processGraphics to getIds--><path d="M678.391,370.36 C708.12,371.003 742.411,371.744 767.071,372.277 " fill="none" id="processGraphics-&gt;getIds" style="stroke: #000000; stroke-width: 0.5; stroke-dasharray: 7.0,7.0;"/><polygon fill="#000000" points="772.182,372.388,763.271,368.1935,767.1832,372.2794,763.0973,376.1916,772.182,372.388" style="stroke: #000000; stroke-width: 0.5;"/><!--MD5=[415eb3b1ebe17f3bce8d22f05754a7da]
link processGraphics to getIdString--><path d="M660.756,358.481 C690.991,351.453 730.432,342.286 759.7,335.483 " fill="none" id="processGraphics-&gt;getIdString" style="stroke: #000000; stroke-width: 0.5; stroke-dasharray: 7.0,7.0;"/><polygon fill="#000000" points="764.673,334.327,755.0013,332.4675,759.8027,335.4585,756.8117,340.2599,764.673,334.327" style="stroke: #000000; stroke-width: 0.5;"/><!--MD5=[0c2e3f364d95cd7f4dbe44f38af526d0]
link processTokens to Token--><path d="M675.031,675 C756.662,675 900.477,675 964.362,675 " fill="none" id="processTokens-&gt;Token" style="stroke: #000000; stroke-width: 0.5;"/><polygon fill="#000000" points="969.557,675,960.557,671,964.557,675,960.557,679,969.557,675" style="stroke: #000000; stroke-width: 0.5;"/><!--MD5=[a6f0ac65642e6b17b869fbb3f25a83af]
link Token to makeBorderWidthTokens--><path d="M1024.36,678.322 C1052.54,681.94 1098.95,687.902 1139.1,693.059 " fill="none" id="Token-&gt;makeBorderWidthTokens" style="stroke: #000000; stroke-width: 0.5; stroke-dasharray: 7.0,7.0;"/><polygon fill="#000000" points="1144.47,693.748,1136.0445,688.6479,1139.5097,693.1192,1135.0384,696.5844,1144.47,693.748" style="stroke: #000000; stroke-width: 0.5;"/><!--MD5=[2a1dee5ae9cb29af6e21cbeff2408109]
link Token to makeColorTokens--><path d="M1024.36,671.678 C1055.79,667.641 1109.93,660.688 1152.74,655.189 " fill="none" id="Token-&gt;makeColorTokens" style="stroke: #000000; stroke-width: 0.5; stroke-dasharray: 7.0,7.0;"/><polygon fill="#000000" points="1157.91,654.526,1148.4705,651.716,1152.9515,655.1687,1149.4988,659.6496,1157.91,654.526" style="stroke: #000000; stroke-width: 0.5;"/><!--MD5=[a28e8591c7aa928b6df186655cebe6c3]
link Token to makeDelayTokens--><path d="M1014.89,664.649 C1034.96,652.39 1070.32,632.109 1103,620 C1120.41,613.548 1139.94,608.379 1157.83,604.402 " fill="none" id="Token-&gt;makeDelayTokens" style="stroke: #000000; stroke-width: 0.5; stroke-dasharray: 7.0,7.0;"/><polygon fill="#000000" points="1162.83,603.312,1153.182,601.3333,1157.9461,604.3833,1154.8961,609.1475,1162.83,603.312" style="stroke: #000000; stroke-width: 0.5;"/><!--MD5=[40ba91e825933ee3a303394fa927cbde]
link Token to makeDurationTokens--><path d="M1006.93,662.452 C1022.89,639.734 1059.8,591.842 1103,567 C1116.75,559.092 1132.69,553.403 1148.19,549.314 " fill="none" id="Token-&gt;makeDurationTokens" style="stroke: #000000; stroke-width: 0.5; stroke-dasharray: 7.0,7.0;"/><polygon fill="#000000" points="1153.43,547.988,1143.7231,546.3219,1148.5833,549.2165,1145.6886,554.0766,1153.43,547.988" style="stroke: #000000; stroke-width: 0.5;"/><!--MD5=[51a6e01382a3a9ea7d85f3556b11e911]
link Token to makeEasingTokens--><path d="M1002.903,661.932 C1014.17,630.577 1047.16,550.738 1103,511 C1116.24,501.581 1132.32,495.413 1148.16,491.385 " fill="none" id="Token-&gt;makeEasingTokens" style="stroke: #000000; stroke-width: 0.5; stroke-dasharray: 7.0,7.0;"/><polygon fill="#000000" points="1153.07,490.202,1143.3833,488.4223,1148.2092,491.3736,1145.2579,496.1995,1153.07,490.202" style="stroke: #000000; stroke-width: 0.5;"/><!--MD5=[6a17d7d194164a01db1cd67077636aca]
link Token to makeFontSizeTokens--><path d="M1000.734,662.072 C1007.98,624.211 1034.46,512.747 1103,457 C1114.53,447.623 1128.75,441.319 1143.18,437.098 " fill="none" id="Token-&gt;makeFontSizeTokens" style="stroke: #000000; stroke-width: 0.5; stroke-dasharray: 7.0,7.0;"/><polygon fill="#000000" points="1148.07,435.745,1138.3305,434.2811,1143.2499,437.074,1140.457,441.9933,1148.07,435.745" style="stroke: #000000; stroke-width: 0.5;"/><!--MD5=[7136b84702e23be865c694ba0ffbcc7f]
link Token to makeFontTokens--><path d="M999.303,662.003 C1002.755,617.943 1020.21,472.998 1103,401 C1115.86,389.819 1132.55,383.182 1149.16,379.309 " fill="none" id="Token-&gt;makeFontTokens" style="stroke: #000000; stroke-width: 0.5; stroke-dasharray: 7.0,7.0;"/><polygon fill="#000000" points="1154.31,378.194,1144.6676,376.1878,1149.4231,379.2514,1146.3595,384.0069,1154.31,378.194" style="stroke: #000000; stroke-width: 0.5;"/><!--MD5=[e73c2736c4c8845f28f963f68edfb9c5]
link Token to makeFontWeightTokens--><path d="M998.484,661.795 C999.175,612.57 1008.46,438.029 1103,349 C1112.82,339.749 1125.18,333.345 1138.1,328.934 " fill="none" id="Token-&gt;makeFontWeightTokens" style="stroke: #000000; stroke-width: 0.5; stroke-dasharray: 7.0,7.0;"/><polygon fill="#000000" points="1142.88,327.397,1133.088,326.3403,1138.1194,328.9258,1135.534,333.9572,1142.88,327.397" style="stroke: #000000; stroke-width: 0.5;"/><!--MD5=[283ae290e26b4ae2d8be9f43d46c0bcc]
link Token to makeLetterSpacingTokens--><path d="M1000.309,661.89 C1008.97,600.948 1048.06,345.987 1103,291 C1111.99,282.006 1123.31,275.553 1135.31,270.937 " fill="none" id="Token-&gt;makeLetterSpacingTokens" style="stroke: #000000; stroke-width: 0.5; stroke-dasharray: 7.0,7.0;"/><polygon fill="#000000" points="1140.11,269.195,1130.2861,268.4938,1135.408,270.8952,1133.0065,276.017,1140.11,269.195" style="stroke: #000000; stroke-width: 0.5;"/><!--MD5=[cbb96ffee0101f6ac2423d4db0e8abc2]
link Token to makeLineHeightTokens--><path d="M1000.183,687.998 C1008.41,749.587 1046.33,1011.373 1103,1067 C1112.8,1076.623 1125.36,1083.115 1138.52,1087.458 " fill="none" id="Token-&gt;makeLineHeightTokens" style="stroke: #000000; stroke-width: 0.5; stroke-dasharray: 7.0,7.0;"/><polygon fill="#000000" points="1143.4,1088.963,1135.9939,1082.4707,1138.6256,1087.4781,1133.6181,1090.1098,1143.4,1088.963" style="stroke: #000000; stroke-width: 0.5;"/><!--MD5=[6cbeb33f3553f6780f8085f206823a05]
link Token to makeMediaQueryTokens--><path d="M998.381,688.138 C998.68,737.92 1006.67,916.733 1103,1008 C1112.45,1016.953 1124.27,1023.242 1136.68,1027.639 " fill="none" id="Token-&gt;makeMediaQueryTokens" style="stroke: #000000; stroke-width: 0.5; stroke-dasharray: 7.0,7.0;"/><polygon fill="#000000" points="1141.65,1029.292,1134.3642,1022.665,1136.9036,1027.7199,1131.8488,1030.2593,1141.65,1029.292" style="stroke: #000000; stroke-width: 0.5;"/><!--MD5=[352b7c19969245824cc3b700e3233b92]
link Token to makeOpacityTokens--><path d="M999.299,688.084 C1002.739,732.446 1020.16,878.469 1103,952 C1114.52,962.229 1129.19,968.853 1144.13,973.111 " fill="none" id="Token-&gt;makeOpacityTokens" style="stroke: #000000; stroke-width: 0.5; stroke-dasharray: 7.0,7.0;"/><polygon fill="#000000" points="1149.2,974.467,1141.5318,968.2865,1144.3683,973.1808,1139.4739,976.0173,1149.2,974.467" style="stroke: #000000; stroke-width: 0.5;"/><!--MD5=[639061576df337fc471be7e646782ebc]
link Token to makeRadiusTokens--><path d="M1000.565,687.971 C1007.41,726.49 1033.03,841.06 1103,898 C1115.28,907.993 1130.64,914.4 1146.06,918.481 " fill="none" id="Token-&gt;makeRadiusTokens" style="stroke: #000000; stroke-width: 0.5; stroke-dasharray: 7.0,7.0;"/><polygon fill="#000000" points="1151.29,919.777,1143.5133,913.7335,1146.4362,918.5768,1141.593,921.4996,1151.29,919.777" style="stroke: #000000; stroke-width: 0.5;"/><!--MD5=[ebb18370bb68fd98fe4b5216e1a44b69]
link Token to makeShadowTokens--><path d="M1002.689,687.807 C1013.68,719.329 1046.49,801.077 1103,842 C1115.63,851.144 1130.9,857.322 1146.08,861.49 " fill="none" id="Token-&gt;makeShadowTokens" style="stroke: #000000; stroke-width: 0.5; stroke-dasharray: 7.0,7.0;"/><polygon fill="#000000" points="1151.23,862.828,1143.5246,856.6939,1146.3906,861.571,1141.5135,864.4369,1151.23,862.828" style="stroke: #000000; stroke-width: 0.5;"/><!--MD5=[059a7ebbed9daf2dc3829b35361ec8cc]
link Token to makeSpacingTokens--><path d="M1006.57,687.652 C1022.2,711.073 1058.97,761.146 1103,787 C1117.04,795.242 1133.42,801.068 1149.3,805.183 " fill="none" id="Token-&gt;makeSpacingTokens" style="stroke: #000000; stroke-width: 0.5; stroke-dasharray: 7.0,7.0;"/><polygon fill="#000000" points="1154.21,806.406,1146.4505,800.3405,1149.3596,805.192,1144.5081,808.1011,1154.21,806.406" style="stroke: #000000; stroke-width: 0.5;"/><!--MD5=[9bdc8075c95cb2a0c09682438c086e97]
link Token to makeZindexTokens--><path d="M1014.52,685.446 C1034.5,698.068 1070.06,719.201 1103,732 C1120.38,738.753 1139.9,744.264 1157.79,748.556 " fill="none" id="Token-&gt;makeZindexTokens" style="stroke: #000000; stroke-width: 0.5; stroke-dasharray: 7.0,7.0;"/><polygon fill="#000000" points="1162.79,749.735,1154.9427,743.7836,1157.9224,748.592,1153.1139,751.5717,1162.79,749.735" style="stroke: #000000; stroke-width: 0.5;"/><script type="text/plantuml"><![CDATA[MD5=[7e1e0eca8484af7d844171e615948319]
@startuml

scale max 1920 width
left to right direction

skinparam nodesep 21
skinparam ranksep 42
skinparam monochrome true
skinparam shadowing false
skinparam defaultFontName Tahoma
skinparam defaultFontSize 12
skinparam roundCorner 6
skinparam dpi 150
skinparam arrowColor black
skinparam arrowThickness 0.5
skinparam packageTitleAlignment left

skinparam usecase {
  borderThickness 0.5
}

skinparam rectangle {
  borderThickness 0.5
}

skinparam component {
  borderThickness 1
}


package "Main" {
  (<b>index</b>)
}


package "Controllers" {
  (FigmagicController)
}

package "Usecases" {
  (createElements)
  (createGraphics)
  (createTokens)
}

package "Usecase Interactors -Common" {
  (createPage)
}

package "Usecase Interactors -Elements" {
  (processElements)
  (writeElements)
}

package "Usecase Interactors -Graphics" {
  (getFileList)
  (getIds)
  (getIdString)
  (processGraphics)
  (writeGraphics)
}

package "Usecase Interactors -Tokens" {
  (processTokens)
  (writeTokens)
}

package "Entities" {
  (baseConfig)
  (Config)
  (createConfiguration)
  (FigmagicElement)
  (getFileContents)
  (getTokenMatch)
  (parseCliArgs)
  (parseCssFromElement)
  rectangle "parsers" as _parsers
  (parseTypographyStylingFromElement)
  (processNestedCss)
  (makeBorderWidthTokens)
  (makeColorTokens)
  (makeDelayTokens)
  (makeDurationTokens)
  (makeEasingTokens)
  (makeFontSizeTokens)
  (makeFontTokens)
  (makeFontWeightTokens)
  (makeLetterSpacingTokens)
  (makeLineHeightTokens)
  (makeMediaQueryTokens)
  (makeOpacityTokens)
  (makeRadiusTokens)
  (makeShadowTokens)
  (makeSpacingTokens)
  (makeZindexTokens)
  (sliceOutObjectFromFile)
  (Token)
}

(Config) ..> (baseConfig)
(Config) ..> (createConfiguration)
(createConfiguration) ..> (parseCliArgs)
(createElements) --> (createPage)
(createElements) --> (processElements)
(createElements) --> (writeElements)
(createGraphics) --> (createPage)
(createGraphics) --> (processGraphics)
(createGraphics) --> (writeGraphics)
(createTokens) --> (createPage)
(createTokens) --> (processTokens)
(createTokens) --> (writeTokens)
(FigmagicController) --> (createElements)
(FigmagicController) --> (createGraphics)
(FigmagicController) --> (createTokens)
(FigmagicElement) ..> (parseCssFromElement)
(FigmagicElement) ..> (parseTypographyStylingFromElement)
(FigmagicElement) ..> (processNestedCss)
(getFileContents) ..> (sliceOutObjectFromFile)
(<b>index</b>) ---[thickness=1]> (Config)
(<b>index</b>) --[thickness=1]> (FigmagicController)
(parseCssFromElement) ..> (getFileContents)
(parseCssFromElement) ..> _parsers
_parsers ..> (getTokenMatch)
(parseTypographyStylingFromElement) ..> (getFileContents)
(parseTypographyStylingFromElement) ..> (getTokenMatch)
(processElements) ----> (FigmagicElement)
(processGraphics) ..> (getFileList)
(processGraphics) ..> (getIds)
(processGraphics) ..> (getIdString)
(processTokens) ----> (Token)
(Token) ..> (makeBorderWidthTokens)
(Token) ..> (makeColorTokens)
(Token) ..> (makeDelayTokens)
(Token) ..> (makeDurationTokens)
(Token) ..> (makeEasingTokens)
(Token) ..> (makeFontSizeTokens)
(Token) ..> (makeFontTokens)
(Token) ..> (makeFontWeightTokens)
(Token) ..> (makeLetterSpacingTokens)
(Token) ..> (makeLineHeightTokens)
(Token) ..> (makeMediaQueryTokens)
(Token) ..> (makeOpacityTokens)
(Token) ..> (makeRadiusTokens)
(Token) ..> (makeShadowTokens)
(Token) ..> (makeSpacingTokens)
(Token) ..> (makeZindexTokens)

@enduml


' View and edit on https://arkit.pro
]]></script></g></svg>